<svg width="618" height="461" viewBox="0 0 618 461" fill="none" xmlns="http://www.w3.org/2000/svg">
<path d="M618 404.667H0V404.976H618V404.667Z" fill="#E6E6E6"/>
<path d="M140.731 414.58H98.2126V414.889H140.731V414.58Z" fill="#E6E6E6"/>
<path d="M161.582 414.58H148.876V414.889H161.582V414.58Z" fill="#E6E6E6"/>
<path d="M224.272 408.51H200.343V408.819H224.272V408.51Z" fill="#E6E6E6"/>
<path d="M532.234 421.439H478.851V421.748H532.234V421.439Z" fill="#E6E6E6"/>
<path d="M551.071 421.439H543.247V421.748H551.071V421.439Z" fill="#E6E6E6"/>
<path d="M492.361 410.587H376.572V410.896H492.361V410.587Z" fill="#E6E6E6"/>
<path d="M292.932 349.541H54.2727C52.4031 349.538 50.6112 348.793 49.2903 347.469C47.9694 346.146 47.2275 344.353 47.2275 342.483V6.99576C47.2438 5.13685 47.9929 3.35942 49.312 2.04956C50.6311 0.739694 52.4138 0.00318442 54.2727 0H292.932C294.804 0 296.599 0.743563 297.922 2.06711C299.246 3.39066 299.99 5.18578 299.99 7.05756V342.483C299.99 344.355 299.246 346.15 297.922 347.474C296.599 348.797 294.804 349.541 292.932 349.541ZM54.2727 0.247201C52.485 0.250475 50.7717 0.962925 49.5088 2.22817C48.2458 3.49342 47.5365 5.20807 47.5365 6.99576V342.483C47.5365 344.271 48.2458 345.986 49.5088 347.251C50.7717 348.516 52.485 349.229 54.2727 349.232H292.932C294.721 349.229 296.435 348.516 297.7 347.252C298.965 345.987 299.677 344.272 299.681 342.483V6.99576C299.677 5.20693 298.965 3.49231 297.7 2.22742C296.435 0.962523 294.721 0.250468 292.932 0.247201H54.2727Z" fill="#E6E6E6"/>
<path d="M560.291 349.541H321.62C319.749 349.538 317.956 348.793 316.633 347.47C315.31 346.147 314.565 344.354 314.562 342.483V6.99576C314.582 5.13572 315.333 3.35831 316.654 2.04878C317.975 0.739262 319.759 0.00314969 321.62 0H560.291C562.148 0.00643276 563.927 0.74438 565.244 2.0539C566.56 3.36341 567.308 5.13898 567.324 6.99576V342.483C567.324 344.351 566.584 346.142 565.266 347.465C563.947 348.788 562.159 349.534 560.291 349.541ZM321.62 0.247201C319.831 0.250468 318.116 0.962523 316.851 2.22742C315.586 3.49231 314.874 5.20693 314.871 6.99576V342.483C314.874 344.272 315.586 345.987 316.851 347.252C318.116 348.516 319.831 349.229 321.62 349.232H560.291C562.08 349.229 563.795 348.516 565.059 347.252C566.324 345.987 567.036 344.272 567.04 342.483V6.99576C567.036 5.20693 566.324 3.49231 565.059 2.22742C563.795 0.962523 562.08 0.250468 560.291 0.247201H321.62Z" fill="#E6E6E6"/>
<path d="M517.909 236.212H431.302V404.666H517.909V236.212Z" fill="#F5F5F5"/>
<path d="M517.909 236.212H510.765V404.666H517.909V236.212Z" fill="#F0F0F0"/>
<path d="M238.573 277.408H437.977V241.02L238.573 241.02V277.408Z" fill="#E0E0E0"/>
<path d="M321.718 404.79H236.224C235.897 404.79 235.582 404.66 235.35 404.428C235.119 404.196 234.988 403.882 234.988 403.554C234.988 403.226 235.119 402.912 235.35 402.68C235.582 402.448 235.897 402.318 236.224 402.318H321.718C334.078 402.318 335.722 398.709 335.722 384.396V203.94C335.722 203.612 335.853 203.298 336.084 203.066C336.316 202.834 336.631 202.704 336.958 202.704C337.286 202.704 337.601 202.834 337.832 203.066C338.064 203.298 338.194 203.612 338.194 203.94V384.396C338.194 399.698 335.821 404.79 321.718 404.79Z" fill="#E0E0E0"/>
<path d="M246.236 249.5L515.956 249.5V236.868L246.236 236.868V249.5Z" fill="#F0F0F0"/>
<path d="M248.189 236.212H161.582V404.666H248.189V236.212Z" fill="#F5F5F5"/>
<path d="M248.176 236.212H241.032V404.666H248.176V236.212Z" fill="#F0F0F0"/>
<path d="M186.859 404.667L186.859 104.689H112.538L112.538 404.667H186.859Z" fill="#FAFAFA"/>
<path d="M182.78 179.616V113.453H116.617V179.616H182.78Z" fill="#F5F5F5"/>
<path d="M135.045 112.562H164.388C164.388 114.382 163.665 116.127 162.379 117.413C161.092 118.7 159.347 119.422 157.528 119.422H141.955C141.05 119.429 140.152 119.256 139.314 118.914C138.476 118.573 137.714 118.068 137.072 117.431C136.43 116.793 135.92 116.035 135.572 115.199C135.224 114.364 135.045 113.468 135.045 112.562Z" fill="#E0E0E0"/>
<path d="M182.767 251.711V185.548H116.604V251.711H182.767Z" fill="#F5F5F5"/>
<path d="M182.78 323.808V257.645H116.617V323.808H182.78Z" fill="#F5F5F5"/>
<path d="M182.78 395.916V329.753H116.617V395.916H182.78Z" fill="#F5F5F5"/>
<path d="M135.045 184.671H164.388C164.385 186.489 163.661 188.232 162.375 189.518C161.089 190.804 159.346 191.527 157.528 191.531H141.955C141.05 191.536 140.153 191.362 139.316 191.019C138.479 190.677 137.718 190.173 137.076 189.535C136.434 188.898 135.924 188.14 135.576 187.306C135.227 186.471 135.047 185.575 135.045 184.671Z" fill="#E0E0E0"/>
<path d="M135.045 256.767H164.388C164.388 258.586 163.665 260.331 162.379 261.617C161.092 262.904 159.347 263.626 157.528 263.626H141.955C141.05 263.633 140.152 263.46 139.314 263.118C138.476 262.777 137.714 262.272 137.072 261.635C136.43 260.997 135.92 260.239 135.572 259.403C135.224 258.568 135.045 257.672 135.045 256.767Z" fill="#E0E0E0"/>
<path d="M135.045 328.863H164.388C164.388 330.682 163.665 332.427 162.379 333.713C161.092 335 159.347 335.723 157.528 335.723H141.955C141.05 335.729 140.152 335.556 139.314 335.215C138.476 334.873 137.714 334.369 137.072 333.731C136.43 333.093 135.92 332.335 135.572 331.499C135.224 330.664 135.045 329.768 135.045 328.863Z" fill="#E0E0E0"/>
<path d="M112.538 404.667L112.538 104.689H75.4207L75.4207 404.667H112.538Z" fill="#F0F0F0"/>
<path d="M326.786 236.212H308.11L312.646 199.849H331.335L326.786 236.212Z" fill="#F0F0F0"/>
<path d="M330.927 236.212H312.238L316.787 199.849H335.463L330.927 236.212Z" fill="#F5F5F5"/>
<path d="M370.998 236.213H357.488L354.905 232.097H368.402L370.998 236.213Z" fill="#F0F0F0"/>
<path d="M443.378 236.213H361.617L359.033 232.097H432.353L443.378 236.213Z" fill="#FAFAFA"/>
<path d="M267.545 225.78H273.453C276.219 225.78 278.873 226.879 280.829 228.836C282.785 230.792 283.884 233.445 283.884 236.212H257.088C257.088 234.84 257.359 233.482 257.884 232.214C258.41 230.947 259.181 229.796 260.152 228.827C261.123 227.858 262.276 227.09 263.545 226.567C264.813 226.044 266.173 225.777 267.545 225.78Z" fill="#F0F0F0"/>
<path d="M333.189 218.031H314.513L316.787 199.849H335.463L333.189 218.031Z" fill="#F0F0F0"/>
<path d="M264.504 213.68H396.756C397.016 213.68 397.274 213.625 397.511 213.518C397.748 213.411 397.96 213.255 398.132 213.059C398.304 212.864 398.432 212.634 398.508 212.385C398.584 212.136 398.606 211.874 398.573 211.616L388.388 130.139C388.334 129.695 388.119 129.287 387.784 128.991C387.45 128.695 387.018 128.531 386.571 128.532H254.356C254.097 128.532 253.841 128.586 253.605 128.693C253.369 128.799 253.157 128.954 252.986 129.148C252.814 129.342 252.685 129.571 252.608 129.818C252.531 130.065 252.508 130.326 252.54 130.583L262.724 212.073C262.778 212.51 262.987 212.913 263.314 213.209C263.641 213.504 264.064 213.671 264.504 213.68Z" fill="#F0F0F0"/>
<path d="M266.506 213.68H398.672C398.932 213.68 399.189 213.625 399.427 213.518C399.664 213.411 399.876 213.255 400.048 213.059C400.22 212.864 400.348 212.634 400.424 212.385C400.5 212.136 400.522 211.874 400.489 211.616L390.304 130.139C390.247 129.696 390.032 129.289 389.698 128.994C389.363 128.698 388.933 128.534 388.487 128.532H256.322C256.063 128.532 255.806 128.586 255.57 128.693C255.334 128.799 255.123 128.954 254.951 129.148C254.779 129.342 254.651 129.571 254.574 129.818C254.497 130.065 254.473 130.326 254.505 130.583L264.689 212.073C264.744 212.516 264.959 212.925 265.293 213.221C265.628 213.517 266.059 213.68 266.506 213.68Z" fill="#F5F5F5"/>
<path d="M396.225 209.168L386.695 132.907C386.677 132.783 386.615 132.669 386.519 132.587C386.424 132.505 386.302 132.461 386.176 132.462H259.276C259.203 132.46 259.131 132.473 259.064 132.502C258.997 132.53 258.937 132.573 258.889 132.627C258.84 132.682 258.804 132.746 258.784 132.816C258.763 132.885 258.758 132.959 258.769 133.031L268.299 209.304C268.314 209.428 268.374 209.541 268.467 209.623C268.561 209.705 268.681 209.75 268.805 209.749H395.718C395.79 209.748 395.862 209.732 395.928 209.701C395.994 209.67 396.053 209.626 396.1 209.572C396.148 209.517 396.184 209.453 396.205 209.383C396.227 209.314 396.233 209.241 396.225 209.168Z" fill="#E0E0E0"/>
<path d="M347.922 236.212H317.491V235.829C317.491 235.026 317.81 234.255 318.378 233.688C318.946 233.12 319.716 232.801 320.519 232.801H344.893C345.697 232.801 346.467 233.12 347.035 233.688C347.603 234.255 347.922 235.026 347.922 235.829V236.212Z" fill="#FAFAFA"/>
<path d="M321.039 236.212H300.397V235.829C300.397 235.026 300.716 234.255 301.284 233.688C301.852 233.12 302.622 232.801 303.426 232.801H318.01C318.814 232.801 319.584 233.12 320.152 233.688C320.72 234.255 321.039 235.026 321.039 235.829V236.212Z" fill="#F0F0F0"/>
<path d="M143.945 70.8108V70.749C144.229 69.7973 144.501 68.8332 144.736 67.8691C145.154 68.5355 145.723 69.0942 146.398 69.5C147.072 69.9058 147.832 70.1473 148.617 70.2051H148.95C151.015 70.0074 152.992 68.0051 154.24 64.8533C154.265 64.7966 154.277 64.7356 154.277 64.674C154.277 64.6124 154.265 64.5515 154.24 64.4948C154.181 64.382 154.078 64.2975 153.956 64.26C152.475 63.8845 150.931 63.8258 149.425 64.0877C147.919 64.3497 146.485 64.9264 145.218 65.7803C145.403 64.8656 145.564 63.9386 145.7 63.024C146.026 63.0868 146.357 63.1199 146.689 63.1229C150.05 63.1229 152.522 60.1194 152.646 59.9711C152.69 59.9166 152.72 59.8527 152.734 59.7844C152.748 59.7161 152.746 59.6455 152.728 59.5781C152.71 59.5108 152.677 59.4486 152.63 59.3966C152.584 59.3446 152.526 59.3043 152.461 59.2789C151.68 58.8912 150.825 58.6731 149.954 58.639C149.083 58.605 148.214 58.7556 147.405 59.0812C146.542 59.5203 145.844 60.2271 145.415 61.0958C144.786 59.1617 143.634 57.439 142.088 56.1174C140.542 54.7958 138.661 53.9266 136.652 53.6057C136.59 53.5909 136.525 53.5911 136.463 53.6061C136.4 53.6211 136.342 53.6506 136.294 53.6922C136.242 53.7286 136.199 53.7767 136.169 53.8324C136.139 53.8882 136.123 53.9502 136.121 54.0135C135.948 57.0665 136.047 60.8115 138.333 62.5914C139.29 63.2967 140.458 63.6543 141.646 63.6049C142.709 63.5793 143.765 63.413 144.785 63.1105C144.459 65.3194 143.984 67.5038 143.364 69.6489C141.127 66.6011 137.953 64.3697 134.329 63.2959C134.214 63.2692 134.093 63.2878 133.992 63.3476C133.891 63.4074 133.817 63.504 133.785 63.6173C133.093 66.2499 133.451 68.3882 134.811 69.7973C135.502 70.4184 136.311 70.8939 137.19 71.1954C138.07 71.497 139.001 71.6184 139.928 71.5524C140.924 71.5461 141.918 71.4426 142.894 71.2434C142.325 73.0479 141.658 74.8154 141.028 76.4964C139.656 75.2604 135.614 72.1951 131.214 73.4805C131.096 73.5197 130.998 73.6042 130.942 73.7154C130.918 73.7721 130.905 73.833 130.905 73.8946C130.905 73.9562 130.918 74.0172 130.942 74.0738C132.178 76.9908 133.5 78.6099 135.206 79.1661C135.661 79.316 136.136 79.3912 136.615 79.3886C137.921 79.3331 139.194 78.9598 140.323 78.3009C139.384 80.5381 138.383 82.6269 137.431 84.4809C136.301 83.3289 134.882 82.5028 133.322 82.0895C131.763 81.6763 130.121 81.6911 128.569 82.1325C128.463 82.1535 128.369 82.2134 128.305 82.3003C128.241 82.3872 128.211 82.4949 128.223 82.6022C128.332 83.537 128.685 84.4265 129.247 85.1815C129.809 85.9365 130.56 86.5304 131.424 86.9035C132.076 87.1838 132.778 87.3269 133.488 87.3237C134.472 87.3114 135.439 87.0612 136.306 86.5945C135.342 88.3867 134.452 89.8823 133.76 91.0194H125.355C124.02 88.7328 122.475 85.89 120.967 82.7011C121.67 82.9108 122.397 83.0231 123.13 83.0348C124.032 83.046 124.923 82.8495 125.737 82.4606C126.55 82.0716 127.263 81.5006 127.819 80.7918C128.376 80.0831 128.763 79.2556 128.948 78.3735C129.134 77.4915 129.114 76.5785 128.89 75.7053C128.861 75.6039 128.796 75.5166 128.708 75.4597C128.619 75.4028 128.512 75.3803 128.408 75.3963C126.692 75.5637 125.041 76.142 123.595 77.0821C122.149 78.0223 120.951 79.2967 120.102 80.7977C119.113 78.5729 118.149 76.2121 117.309 73.7772C118.379 74.3859 119.577 74.7332 120.807 74.7907C121.295 74.7963 121.78 74.7168 122.24 74.5559C124.712 73.7401 126.134 70.7613 127.345 67.6713C127.372 67.6155 127.387 67.5542 127.387 67.4921C127.387 67.43 127.372 67.3687 127.345 67.3129C127.317 67.2562 127.277 67.206 127.228 67.1656C127.179 67.1251 127.122 67.0953 127.061 67.0781C122.117 65.6937 118.05 70.4523 116.79 72.158C116.13 70.1 115.582 68.0081 115.146 65.8915C116.184 66.0948 117.239 66.2023 118.298 66.2129C119.349 66.2897 120.405 66.1495 121.401 65.8007C122.396 65.452 123.308 64.9023 124.082 64.1858C125.578 62.6037 125.936 60.2306 125.133 57.3384C125.118 57.2817 125.093 57.2285 125.057 57.1819C125.022 57.1354 124.978 57.0965 124.927 57.0676C124.876 57.0387 124.82 57.0205 124.762 57.0139C124.704 57.0073 124.645 57.0126 124.589 57.0294C120.644 58.2602 117.211 60.7474 114.812 64.1117L114.627 62.9869C114.614 62.8896 114.57 62.7988 114.503 62.7273C114.299 61.996 113.944 61.3156 113.461 60.7301C112.978 60.1447 112.377 59.6671 111.697 59.3283C110.806 58.9843 109.851 58.8329 108.897 58.884C107.943 58.9352 107.01 59.1877 106.16 59.625C106.095 59.6532 106.036 59.6956 105.989 59.749C105.942 59.8024 105.908 59.8656 105.888 59.934C105.873 60.0011 105.874 60.0709 105.891 60.1375C105.908 60.2042 105.941 60.2658 105.987 60.3172C106.111 60.4778 108.83 63.6914 112.488 63.6914C112.883 63.6863 113.276 63.645 113.663 63.5678C113.823 64.6184 114.021 65.669 114.244 66.7073C112.834 65.7794 111.244 65.1608 109.578 64.8924C107.912 64.6239 106.208 64.7117 104.578 65.1499C104.456 65.1874 104.354 65.2719 104.294 65.3847C104.269 65.4435 104.257 65.5065 104.257 65.5701C104.257 65.6338 104.269 65.6968 104.294 65.7555C105.715 69.1916 107.915 71.367 110.189 71.5524H110.498C111.648 71.5524 113.205 71.0209 114.787 68.9073C115.41 71.3106 116.161 73.6788 117.037 76.002C114.899 74.9885 110.091 73.2457 106.654 75.9031C106.607 75.9373 106.567 75.9806 106.537 76.0305C106.507 76.0805 106.488 76.136 106.48 76.1937C106.471 76.2514 106.475 76.3101 106.49 76.3664C106.506 76.4227 106.532 76.4753 106.568 76.5211C108.793 79.5493 110.845 81.0201 112.859 81.0201C114.528 81.0201 116.122 79.9695 117.717 77.8931C118.631 80.1673 119.62 82.3427 120.597 84.345C118.458 83.0225 116.11 83.2326 113.341 84.9753C113.277 85.0138 113.224 85.0681 113.187 85.1331C113.151 85.198 113.131 85.2715 113.131 85.3461C113.126 85.4189 113.141 85.4916 113.173 85.5569C113.206 85.6221 113.255 85.6773 113.317 85.7169C114.965 86.9055 116.913 87.6117 118.94 87.7563C119.986 87.7771 121.012 87.4655 121.87 86.8664C122.661 88.3867 123.439 89.7834 124.156 91.0317H120.337V93.2071H121.721L122.871 104.727H139.792L140.929 93.2071H142.325V91.0317H134.724C135.565 89.6351 136.64 87.7687 137.789 85.581C137.824 85.537 137.849 85.4865 137.863 85.4327C138.16 84.8765 138.444 84.3079 138.741 83.7146C139.244 84.4752 139.921 85.1043 140.717 85.5494C141.512 85.9946 142.403 86.2427 143.314 86.2731C143.504 86.2854 143.693 86.2854 143.883 86.2731C144.89 86.159 145.845 85.7683 146.644 85.1444C147.442 84.5205 148.052 83.6876 148.407 82.7382C148.443 82.6406 148.443 82.5332 148.407 82.4355C148.371 82.3379 148.3 82.2566 148.209 82.2067C146.913 81.4746 145.461 81.0614 143.974 81.0012C142.487 80.9411 141.007 81.2356 139.656 81.8606C140.298 80.5134 140.892 79.0673 141.534 77.5717C141.583 77.5162 141.613 77.4472 141.621 77.3739C141.794 76.9537 141.955 76.5335 142.128 76.1379C143.599 77.9919 145.057 78.9066 146.577 78.9066C148.419 78.9066 150.285 77.547 152.288 74.7413C152.357 74.6475 152.387 74.5302 152.371 74.4146C152.355 74.299 152.294 74.1943 152.201 74.1233C149.049 71.7625 144.785 73.3817 142.783 74.321C143.191 73.2086 143.561 72.0839 143.908 70.9344L143.945 70.8108Z" fill="#E0E0E0"/>
<path d="M497.453 65.5952H434.244V134.997H497.453V65.5952Z" fill="#E0E0E0"/>
<path d="M489.654 68.4376C489.601 68.4502 489.546 68.4502 489.493 68.4376C489.345 68.3387 474.414 59.4642 469.717 59.4642C465.02 59.4642 450.744 68.3387 450.596 68.4252C450.562 68.4475 450.524 68.4626 450.485 68.4697C450.445 68.4768 450.404 68.4757 450.365 68.4664C450.325 68.4572 450.288 68.44 450.256 68.4159C450.223 68.3918 450.196 68.3613 450.176 68.3263C450.134 68.2572 450.121 68.1746 450.14 68.0961C450.158 68.0175 450.207 67.9494 450.275 67.9061C450.868 67.5353 464.798 58.8462 469.717 58.8462C474.636 58.8462 489.246 67.4982 489.864 67.9061C489.899 67.9263 489.929 67.9535 489.953 67.986C489.978 68.0184 489.995 68.0555 490.004 68.0949C490.013 68.1342 490.014 68.175 490.007 68.2148C490 68.2546 489.985 68.2926 489.963 68.3263C489.928 68.3732 489.88 68.4088 489.825 68.4286C489.77 68.4484 489.71 68.4515 489.654 68.4376Z" fill="#EBEBEB"/>
<path d="M504.288 65.5952H439.002V134.997H504.288V65.5952Z" fill="#F5F5F5"/>
<path d="M498.825 129.521V71.0581H444.478V129.521H498.825Z" fill="white"/>
<path d="M482.177 110.822C487.994 105.006 487.994 95.5754 482.177 89.759C476.361 83.9426 466.931 83.9426 461.114 89.759C455.298 95.5754 455.298 105.006 461.114 110.822C466.931 116.638 476.361 116.638 482.177 110.822Z" fill="#E0E0E0"/>
<path d="M470.384 320.433H525.782C530.865 320.437 535.747 318.447 539.378 314.89C543.009 311.333 545.099 306.493 545.2 301.411L547.276 199.985C547.314 198.103 546.976 196.232 546.281 194.482C545.587 192.732 544.551 191.138 543.233 189.793C541.915 188.449 540.342 187.381 538.606 186.652C536.87 185.923 535.006 185.548 533.124 185.548H498.392C494.918 185.547 491.564 186.826 488.972 189.14C486.38 191.454 484.731 194.641 484.339 198.094L470.384 320.433Z" fill="#E6E6E6"/>
<path d="M500.617 320.434H441.586C440.851 320.434 440.147 320.142 439.628 319.623C439.109 319.103 438.817 318.399 438.817 317.665V317.405C438.817 315.393 439.617 313.462 441.04 312.039C442.463 310.616 444.393 309.816 446.406 309.816H500.617V320.434Z" fill="#E6E6E6"/>
<path d="M495.957 406.051C495.67 406.058 495.389 405.964 495.164 405.785C494.938 405.607 494.782 405.356 494.721 405.075L477.417 321.67H447.259L429.955 405.075C429.888 405.403 429.693 405.69 429.414 405.875C429.134 406.059 428.793 406.125 428.466 406.057C428.138 405.99 427.85 405.796 427.666 405.516C427.482 405.237 427.416 404.896 427.483 404.568L445.009 320.186C445.067 319.903 445.223 319.649 445.448 319.468C445.674 319.287 445.956 319.192 446.245 319.198H478.381C478.671 319.192 478.953 319.287 479.178 319.468C479.404 319.649 479.56 319.903 479.617 320.186L497.132 404.568C497.197 404.888 497.134 405.22 496.956 405.493C496.778 405.767 496.499 405.958 496.18 406.027C496.107 406.044 496.032 406.052 495.957 406.051Z" fill="#E6E6E6"/>
<path d="M477.158 406.051C477.076 406.063 476.993 406.063 476.911 406.051C476.751 406.018 476.6 405.955 476.466 405.864C476.331 405.773 476.216 405.657 476.126 405.521C476.037 405.386 475.975 405.234 475.944 405.075C475.913 404.915 475.914 404.752 475.947 404.592L493.473 320.211C493.531 319.927 493.686 319.673 493.912 319.493C494.138 319.312 494.42 319.216 494.709 319.222H526.845C527.134 319.216 527.416 319.312 527.642 319.493C527.868 319.673 528.023 319.927 528.081 320.211L545.595 404.592C545.628 404.755 545.629 404.922 545.598 405.085C545.567 405.247 545.503 405.402 545.412 405.541C545.321 405.679 545.203 405.798 545.066 405.891C544.929 405.984 544.775 406.049 544.612 406.082C544.45 406.115 544.283 406.116 544.12 406.085C543.957 406.053 543.803 405.99 543.664 405.899C543.526 405.808 543.407 405.69 543.314 405.553C543.221 405.416 543.156 405.262 543.123 405.099L525.819 321.694H495.636L478.332 405.099C478.269 405.365 478.12 405.603 477.907 405.775C477.695 405.948 477.431 406.045 477.158 406.051Z" fill="#E6E6E6"/>
<path d="M309 460.484C441.354 460.484 548.648 454.22 548.648 446.492C548.648 438.765 441.354 432.501 309 432.501C176.646 432.501 69.352 438.765 69.352 446.492C69.352 454.22 176.646 460.484 309 460.484Z" fill="#F5F5F5"/>
<path d="M330.148 435.072C329.761 435.071 329.386 434.937 329.086 434.691C328.786 434.446 328.581 434.104 328.504 433.725L305.02 318.085H264.121L240.637 433.725C240.525 434.137 240.26 434.491 239.897 434.715C239.534 434.939 239.099 435.016 238.68 434.931C238.262 434.846 237.891 434.605 237.644 434.257C237.397 433.909 237.291 433.48 237.349 433.057L261.105 316.07C261.184 315.691 261.39 315.351 261.689 315.106C261.988 314.861 262.362 314.726 262.749 314.723H306.38C306.767 314.723 307.142 314.858 307.442 315.103C307.741 315.349 307.947 315.69 308.023 316.07L331.792 433.057C331.879 433.493 331.791 433.946 331.545 434.317C331.3 434.687 330.917 434.946 330.482 435.035L330.148 435.072Z" fill="#407BFF"/>
<path d="M264.504 435.072C264.117 435.069 263.743 434.933 263.444 434.688C263.145 434.443 262.939 434.103 262.86 433.725L239.376 318.085H198.477L174.993 433.725C174.962 433.953 174.884 434.172 174.765 434.368C174.646 434.565 174.488 434.735 174.301 434.868C174.113 435.002 173.9 435.095 173.675 435.143C173.45 435.19 173.218 435.191 172.993 435.145C172.767 435.1 172.554 435.008 172.365 434.877C172.177 434.745 172.017 434.576 171.896 434.38C171.776 434.185 171.697 433.966 171.664 433.739C171.631 433.511 171.645 433.279 171.705 433.057L195.473 316.07C195.55 315.69 195.756 315.349 196.055 315.103C196.355 314.858 196.73 314.723 197.117 314.723H240.748C241.134 314.724 241.507 314.859 241.805 315.105C242.102 315.35 242.305 315.691 242.38 316.07L266.148 433.057C266.235 433.493 266.147 433.946 265.901 434.317C265.656 434.687 265.273 434.946 264.838 435.035L264.504 435.072Z" fill="#407BFF"/>
<path d="M273.687 316.416H198.539C191.641 316.418 185.018 313.715 180.091 308.887C175.164 304.06 172.326 297.493 172.187 290.596L169.394 176.39C169.341 173.837 169.798 171.3 170.739 168.926C171.679 166.552 173.083 164.389 174.87 162.565C176.656 160.741 178.789 159.291 181.142 158.301C183.496 157.311 186.023 156.8 188.576 156.799H235.693C240.408 156.802 244.958 158.54 248.475 161.681C251.992 164.822 254.23 169.146 254.764 173.831L273.687 316.416Z" fill="#407BFF"/>
<path d="M232.702 301.955H306.244C308.974 301.955 311.593 303.039 313.524 304.97C315.455 306.901 316.54 309.52 316.54 312.25V312.609C316.54 313.592 316.149 314.535 315.453 315.231C314.758 315.926 313.815 316.317 312.832 316.317H232.702V301.955Z" fill="#407BFF"/>
<g opacity="0.3">
<path opacity="0.3" d="M330.148 435.072C329.761 435.071 329.386 434.937 329.086 434.691C328.786 434.446 328.581 434.104 328.504 433.725L305.02 318.085H264.121L240.637 433.725C240.525 434.137 240.26 434.491 239.897 434.715C239.534 434.939 239.099 435.016 238.68 434.931C238.262 434.846 237.891 434.605 237.644 434.257C237.397 433.909 237.291 433.48 237.349 433.057L261.105 316.07C261.184 315.691 261.39 315.351 261.689 315.106C261.988 314.861 262.362 314.726 262.749 314.723H306.38C306.767 314.723 307.142 314.858 307.442 315.103C307.741 315.349 307.947 315.69 308.023 316.07L331.792 433.057C331.879 433.493 331.791 433.946 331.545 434.317C331.3 434.687 330.917 434.946 330.482 435.035L330.148 435.072Z" fill="black"/>
<path opacity="0.3" d="M264.504 435.072C264.117 435.069 263.743 434.933 263.444 434.688C263.145 434.443 262.939 434.103 262.86 433.725L239.376 318.085H198.477L174.993 433.725C174.962 433.953 174.884 434.172 174.765 434.368C174.646 434.565 174.488 434.735 174.301 434.868C174.113 435.002 173.9 435.095 173.675 435.143C173.451 435.19 173.218 435.191 172.993 435.145C172.767 435.1 172.554 435.008 172.365 434.877C172.177 434.745 172.017 434.576 171.897 434.38C171.776 434.185 171.697 433.966 171.664 433.739C171.631 433.511 171.645 433.279 171.705 433.057L195.473 316.07C195.55 315.69 195.756 315.349 196.055 315.103C196.355 314.858 196.73 314.723 197.117 314.723H240.748C241.134 314.724 241.507 314.859 241.805 315.105C242.102 315.35 242.305 315.691 242.38 316.07L266.148 433.057C266.235 433.493 266.147 433.946 265.901 434.317C265.656 434.687 265.273 434.946 264.838 435.035L264.504 435.072Z" fill="black"/>
<path opacity="0.3" d="M273.687 316.416H198.539C191.641 316.418 185.018 313.715 180.091 308.887C175.164 304.06 172.326 297.493 172.187 290.596L169.394 176.39C169.341 173.837 169.798 171.3 170.739 168.926C171.679 166.552 173.083 164.389 174.87 162.565C176.656 160.741 178.789 159.291 181.142 158.301C183.496 157.311 186.023 156.8 188.576 156.799H235.693C240.408 156.802 244.958 158.54 248.475 161.681C251.992 164.822 254.23 169.146 254.764 173.831L273.687 316.416Z" fill="black"/>
<path opacity="0.3" d="M232.702 301.954H306.244C308.974 301.954 311.593 303.039 313.524 304.97C315.455 306.901 316.54 309.519 316.54 312.25V312.608C316.54 313.592 316.149 314.535 315.453 315.23C314.758 315.926 313.815 316.316 312.832 316.316H232.702V301.954Z" fill="black"/>
</g>
<path d="M252.774 150.495C252.774 150.495 263.28 164.215 256.482 191.53C249.684 218.846 214.607 204.014 212.481 179.393C210.009 150.372 242.59 170.382 248.325 144.575L252.774 150.495Z" fill="#263238"/>
<path d="M245.148 142.35C240.587 145.564 238.783 150.236 243.826 154.809C248.869 159.382 256.062 159.234 258.237 157.355C260.413 155.476 259.98 145.935 259.98 145.935L245.148 142.35Z" fill="#407BFF"/>
<path opacity="0.8" d="M245.148 142.35C240.587 145.564 238.783 150.236 243.826 154.809C248.869 159.382 256.062 159.234 258.237 157.355C260.413 155.476 259.98 145.935 259.98 145.935L245.148 142.35Z" fill="white"/>
<path d="M302.746 203.149C302.869 203.705 303.079 204.57 303.277 205.3L303.871 207.623C304.291 209.181 304.748 210.738 305.23 212.295C306.145 215.435 307.158 218.562 308.221 221.689C309.284 224.816 310.372 227.869 311.558 231.033C312.139 232.578 312.72 234.135 313.338 235.68L314.055 237.534C314.198 237.852 314.386 238.147 314.611 238.412C316.371 240.192 318.514 241.545 320.878 242.367C323.765 243.529 326.741 244.455 329.777 245.136C332.917 245.865 336.142 246.471 339.406 246.977C342.669 247.484 346.018 247.892 349.232 248.213L349.343 254.863C342.292 255.592 335.184 255.592 328.133 254.863C324.448 254.483 320.804 253.776 317.244 252.75C315.316 252.168 313.439 251.428 311.633 250.537C309.553 249.526 307.65 248.187 305.996 246.57C305.037 245.614 304.206 244.538 303.524 243.368C303.339 243.072 303.178 242.738 303.005 242.429L302.684 241.762L302.115 240.526C301.349 238.956 300.583 237.386 299.878 235.792C298.444 232.603 297.048 229.389 295.799 226.114C294.551 222.838 293.327 219.538 292.289 216.226C291.782 214.52 291.288 212.827 290.831 211.084L290.151 208.476C289.953 207.537 289.768 206.758 289.57 205.646L302.746 203.149Z" fill="#E58A7B"/>
<path d="M298.543 189.108C303.846 190.455 307.541 212.258 307.541 212.258L292.944 222.146C292.944 222.146 278.94 200.146 283.056 194.324C287.271 188.342 290.806 187.18 298.543 189.108Z" fill="#407BFF"/>
<path opacity="0.5" d="M298.543 189.108C303.846 190.455 307.541 212.258 307.541 212.258L292.944 222.146C292.944 222.146 278.94 200.146 283.056 194.324C287.271 188.342 290.806 187.18 298.543 189.108Z" fill="white"/>
<path opacity="0.2" d="M296.64 194.596L283.946 204.657C286.418 210.769 289.425 216.65 292.932 222.233L303.055 215.349L296.64 194.596Z" fill="#407BFF"/>
<path d="M298.543 189.108C298.543 189.108 304.723 191.258 292.363 266.691H240.179C241.057 245.444 241.082 232.343 230.934 188.724C238.241 187.219 245.648 186.245 253.096 185.808C260.992 185.244 268.918 185.244 276.815 185.808C286.999 186.784 298.543 189.108 298.543 189.108Z" fill="#407BFF"/>
<path opacity="0.5" d="M298.543 189.108C298.543 189.108 304.723 191.258 292.363 266.691H240.179C241.057 245.444 241.082 232.343 230.934 188.724C238.241 187.219 245.648 186.245 253.096 185.808C260.992 185.244 268.918 185.244 276.815 185.808C286.999 186.784 298.543 189.108 298.543 189.108Z" fill="white"/>
<path d="M347.316 248.152L356.425 238.906L357.661 251.934C357.661 251.934 350.826 256.556 346.105 254.072L347.316 248.152Z" fill="#E58A7B"/>
<path d="M367.178 237.535L367.586 248.486L357.649 251.934L356.45 238.907L367.178 237.535Z" fill="#E58A7B"/>
<path d="M351.592 423.082H364.447L366.424 393.307H353.57L351.592 423.082Z" fill="#E58A7B"/>
<path d="M301.844 423.082H314.698L318.826 393.307H305.972L301.844 423.082Z" fill="#E58A7B"/>
<path d="M315.501 421.587H301.052C300.803 421.582 300.561 421.668 300.372 421.83C300.183 421.992 300.06 422.218 300.027 422.465L298.383 433.898C298.353 434.186 298.385 434.478 298.475 434.754C298.565 435.03 298.713 435.284 298.907 435.499C299.102 435.715 299.339 435.887 299.604 436.005C299.87 436.123 300.157 436.184 300.447 436.184C305.477 436.098 307.863 435.801 314.253 435.801C318.159 435.801 328.183 436.209 333.584 436.209C338.985 436.209 339.27 430.869 337.02 430.387C326.947 428.212 321.039 425.233 317.64 422.378C317.043 421.869 316.285 421.588 315.501 421.587Z" fill="#263238"/>
<path d="M365.448 421.587H351.024C350.776 421.584 350.535 421.672 350.346 421.833C350.158 421.995 350.034 422.219 349.998 422.465L348.354 433.898C348.325 434.186 348.356 434.478 348.447 434.754C348.537 435.03 348.684 435.284 348.879 435.499C349.073 435.715 349.311 435.887 349.576 436.005C349.841 436.123 350.128 436.184 350.418 436.184C355.449 436.098 357.834 435.801 364.224 435.801C368.143 435.801 376.214 436.209 381.615 436.209C387.016 436.209 387.301 430.869 385.051 430.387C374.978 428.212 371.01 425.233 367.623 422.378C367.015 421.864 366.244 421.584 365.448 421.587Z" fill="#263238"/>
<path d="M288.297 133.142C292.92 133.438 295.268 156.626 281.709 155.278C268.15 153.931 288.297 133.142 288.297 133.142Z" fill="#263238"/>
<path d="M366.424 393.307L365.399 408.658H352.544L353.558 393.307H366.424Z" fill="#CF6F64"/>
<path d="M305.972 393.307H318.838L316.7 408.658H303.833L305.972 393.307Z" fill="#CF6F64"/>
<path opacity="0.2" d="M236.15 212.975C237.386 219.303 238.264 224.766 238.931 229.685L241.984 206.065L236.15 212.975Z" fill="#407BFF"/>
<path d="M255.444 159.16C256.94 166.786 258.435 180.765 253.096 185.857C253.096 185.857 255.184 193.595 269.361 193.595C284.947 193.595 276.777 185.857 276.777 185.857C268.261 183.83 268.484 177.514 269.967 171.594L255.444 159.16Z" fill="#E58A7B"/>
<path d="M266.543 195.251L271.29 193.545L270.659 192.248L266.543 195.251Z" fill="#263238"/>
<path d="M275.752 194.262L271.29 193.545L272.254 192.099L275.752 194.262Z" fill="#263238"/>
<path d="M254.826 182.261L251.6 185.4C251.503 185.5 251.449 185.633 251.449 185.771C251.449 185.91 251.503 186.043 251.6 186.142L265.196 201.629C265.843 197.951 267.812 194.636 270.733 192.31C259.486 188.058 256.556 183.658 255.555 182.422C255.532 182.35 255.49 182.285 255.435 182.234C255.379 182.184 255.31 182.148 255.237 182.132C255.163 182.116 255.086 182.119 255.014 182.142C254.942 182.164 254.877 182.206 254.826 182.261Z" fill="#407BFF"/>
<path d="M274.256 184.634L278.261 185.721C278.38 185.755 278.489 185.819 278.576 185.908C278.663 185.997 278.725 186.108 278.755 186.228C279.886 191.308 279.673 196.595 278.137 201.567C277.568 199.466 275.665 194.435 272.254 192.099C275.962 189.541 274.466 186.241 273.935 184.992C273.917 184.946 273.913 184.895 273.922 184.847C273.932 184.798 273.954 184.753 273.987 184.716C274.02 184.679 274.063 184.652 274.11 184.637C274.157 184.623 274.208 184.622 274.256 184.634Z" fill="#407BFF"/>
<path d="M261.389 164.228L270.041 171.582C269.682 172.96 269.438 174.365 269.312 175.784C266.061 175.314 261.599 171.755 261.253 168.368C261.042 166.991 261.088 165.587 261.389 164.228Z" fill="#CF6F64"/>
<path d="M254.616 139.062C253.145 151.731 252.243 157.07 257.434 164.635C265.221 176.018 281.116 175.054 286.344 163.077C291.053 152.299 292.66 133.413 281.289 126.195C278.787 124.599 275.919 123.668 272.957 123.492C269.995 123.316 267.037 123.901 264.364 125.19C261.691 126.479 259.393 128.431 257.686 130.859C255.98 133.286 254.923 136.11 254.616 139.062Z" fill="#E58A7B"/>
<path d="M283.588 118.137C262.638 109.868 246.903 119.2 243.653 132.462C238.548 153.054 254.851 154.5 254.851 154.5L256.89 149.235C259.819 151.002 268.014 150.223 265.542 134.934C264.084 126.282 275.035 138.333 288.927 136.986C292.623 136.627 297.678 123.699 283.588 118.137Z" fill="#263238"/>
<path d="M290.719 123.229C287.963 118.99 282.327 115.356 270.647 113.638C270.647 113.638 276.716 115.01 278.681 119.447C280.646 123.884 294.044 128.334 290.719 123.229Z" fill="#263238"/>
<path d="M250.587 150.026C250.501 151.244 250.657 152.467 251.045 153.625C251.433 154.784 252.046 155.854 252.848 156.774C255.011 159.246 257.854 157.726 258.744 154.76C259.535 152.078 259.375 147.578 256.482 146.219C253.59 144.859 250.821 147.01 250.587 150.026Z" fill="#E58A7B"/>
<path d="M292.4 266.741C292.4 266.741 378.599 274.763 377.759 313.956C376.881 354.744 368.155 405.692 368.155 405.692H350.344C350.344 405.692 348.824 362.581 348.305 322.423C348.045 301.51 264.751 297.32 264.751 297.32L253.998 266.741H292.4Z" fill="#263238"/>
<path d="M278.607 266.741C278.607 266.741 334.313 285.219 335.722 308.085C338.306 350.184 319.803 405.729 319.803 405.729H302.264C302.264 405.729 303.265 368.897 305.354 330.754C307.999 282.822 223.432 330.086 240.179 266.778L278.607 266.741Z" fill="#263238"/>
<path d="M272.946 145.972C272.76 146.986 273.156 147.913 273.823 148.036C274.491 148.16 275.171 147.418 275.356 146.405C275.541 145.391 275.146 144.452 274.478 144.34C273.811 144.229 273.156 144.946 272.946 145.972Z" fill="#263238"/>
<path d="M284.478 148.036C284.292 149.049 284.688 149.976 285.355 150.1C286.023 150.224 286.715 149.482 286.9 148.469C287.086 147.455 286.69 146.516 286.023 146.404C285.355 146.293 284.663 147.01 284.478 148.036Z" fill="#263238"/>
<path d="M285.714 146.404L288.297 146.132C288.297 146.132 286.752 147.825 285.714 146.404Z" fill="#263238"/>
<path d="M281.116 149.234C281.61 151.725 282.442 154.137 283.588 156.403C283.006 156.668 282.373 156.805 281.734 156.805C281.094 156.805 280.462 156.668 279.88 156.403L281.116 149.234Z" fill="#DF5753"/>
<path d="M275.628 159.703C274.272 159.488 272.985 158.956 271.873 158.151C270.76 157.346 269.853 156.29 269.225 155.068C269.205 155.021 269.203 154.967 269.222 154.918C269.24 154.87 269.277 154.83 269.324 154.809C269.374 154.792 269.428 154.794 269.476 154.814C269.524 154.835 269.562 154.873 269.584 154.92C270.178 156.074 271.034 157.073 272.084 157.837C273.133 158.601 274.347 159.109 275.628 159.32C275.679 159.332 275.724 159.363 275.754 159.406C275.784 159.45 275.796 159.503 275.789 159.555C275.779 159.593 275.759 159.627 275.731 159.653C275.702 159.68 275.666 159.697 275.628 159.703Z" fill="#263238"/>
<path d="M270.239 141.411C270.185 141.413 270.132 141.403 270.083 141.381C270.034 141.36 269.99 141.328 269.955 141.287C269.917 141.252 269.887 141.21 269.867 141.163C269.847 141.117 269.836 141.066 269.836 141.015C269.836 140.964 269.847 140.914 269.867 140.867C269.887 140.82 269.917 140.778 269.955 140.743C270.62 140.093 271.433 139.612 272.323 139.341C273.214 139.07 274.156 139.016 275.072 139.186C275.168 139.215 275.25 139.279 275.301 139.367C275.352 139.454 275.367 139.557 275.344 139.656C275.332 139.705 275.311 139.752 275.281 139.794C275.251 139.835 275.213 139.87 275.169 139.897C275.125 139.923 275.076 139.941 275.026 139.948C274.975 139.956 274.924 139.953 274.874 139.94C274.084 139.8 273.273 139.852 272.507 140.091C271.741 140.329 271.044 140.748 270.474 141.312C270.408 141.368 270.326 141.403 270.239 141.411Z" fill="#263238"/>
<path d="M290.781 143.438C290.705 143.441 290.629 143.42 290.565 143.377C290.501 143.335 290.451 143.274 290.423 143.203C290.121 142.461 289.648 141.801 289.042 141.277C288.436 140.753 287.715 140.379 286.937 140.187C286.837 140.169 286.747 140.113 286.687 140.03C286.627 139.947 286.602 139.844 286.616 139.742C286.634 139.639 286.692 139.547 286.778 139.487C286.864 139.427 286.97 139.403 287.073 139.421C287.979 139.631 288.82 140.056 289.526 140.661C290.232 141.265 290.781 142.031 291.127 142.894C291.169 142.989 291.172 143.097 291.135 143.194C291.098 143.291 291.024 143.37 290.93 143.413L290.781 143.438Z" fill="#263238"/>
<path d="M238.733 207.376C237.609 211.084 236.397 214.792 235.322 218.599C234.247 222.406 233.11 226.114 232.133 229.884C231.157 233.653 230.23 237.386 229.537 241.008C229.204 242.837 228.895 244.654 228.722 246.36C228.623 247.212 228.573 248.016 228.561 248.757C228.561 248.93 228.561 248.757 228.437 248.473C228.287 248.138 228.077 247.833 227.819 247.571C227.189 247.027 226.954 247.126 227.239 247.212C227.756 247.338 228.288 247.392 228.821 247.373C230.485 247.316 232.14 247.105 233.765 246.743C237.446 245.932 241.074 244.896 244.629 243.64C251.934 241.168 259.35 238.153 266.568 235.075L269.757 240.896C262.909 245.386 255.751 249.384 248.337 252.861C244.498 254.672 240.537 256.212 236.484 257.471C234.227 258.159 231.909 258.626 229.562 258.868C228.097 259.018 226.618 258.981 225.162 258.757C224.196 258.612 223.253 258.342 222.356 257.953C221.198 257.452 220.148 256.73 219.266 255.827C217.552 254.021 216.57 251.642 216.51 249.153C216.448 247.917 216.436 246.681 216.51 245.569C216.597 243.282 216.807 241.119 217.091 239.005C217.684 234.778 218.451 230.699 219.39 226.645C220.329 222.591 221.33 218.673 222.43 214.743C223.531 210.812 224.717 206.956 226.138 203.025L238.733 207.376Z" fill="#E58A7B"/>
<path d="M319.901 423.75C318.763 423.722 317.63 423.565 316.527 423.281C316.486 423.273 316.448 423.253 316.418 423.223C316.388 423.193 316.368 423.156 316.36 423.114C316.352 423.073 316.357 423.03 316.373 422.992C316.39 422.953 316.418 422.92 316.453 422.898C316.886 422.613 320.742 420.117 322.213 420.772C322.367 420.841 322.499 420.952 322.595 421.091C322.691 421.231 322.747 421.394 322.757 421.563C322.818 421.837 322.807 422.123 322.725 422.391C322.642 422.66 322.491 422.903 322.287 423.095C321.594 423.588 320.749 423.82 319.901 423.75ZM317.12 422.984C319.506 423.479 321.298 423.417 321.99 422.774C322.141 422.628 322.252 422.445 322.312 422.244C322.373 422.043 322.381 421.83 322.336 421.625C322.332 421.527 322.3 421.433 322.246 421.353C322.191 421.272 322.116 421.208 322.027 421.167C321.088 420.747 318.48 422.144 317.12 422.984Z" fill="#407BFF"/>
<path d="M316.577 423.293H316.465C316.431 423.273 316.402 423.244 316.383 423.209C316.363 423.174 316.353 423.135 316.354 423.095C316.354 422.947 316.354 419.288 317.738 418.077C317.901 417.921 318.097 417.806 318.311 417.739C318.526 417.673 318.753 417.657 318.974 417.694C319.197 417.692 319.414 417.767 319.587 417.907C319.761 418.046 319.88 418.242 319.926 418.46C320.186 419.795 318.035 422.526 316.688 423.293H316.577ZM318.752 418.077C318.48 418.079 318.219 418.185 318.023 418.373C317.046 419.239 316.849 421.686 316.787 422.662C318.023 421.772 319.679 419.523 319.469 418.522C319.469 418.361 319.345 418.151 318.9 418.089L318.752 418.077Z" fill="#407BFF"/>
<path d="M370.281 423.75C368.923 423.72 367.57 423.567 366.239 423.293C366.196 423.282 366.156 423.258 366.125 423.226C366.095 423.193 366.074 423.152 366.066 423.107C366.06 423.062 366.068 423.016 366.09 422.975C366.113 422.935 366.148 422.903 366.19 422.885C366.758 422.588 371.838 419.993 373.383 420.833C373.517 420.908 373.631 421.014 373.713 421.144C373.795 421.274 373.843 421.422 373.853 421.575C373.888 421.832 373.859 422.094 373.768 422.338C373.678 422.582 373.528 422.799 373.334 422.971C372.435 423.572 371.358 423.847 370.281 423.75ZM366.956 422.984C368.612 423.268 371.9 423.676 373.037 422.662C373.179 422.53 373.288 422.366 373.354 422.183C373.421 422 373.443 421.805 373.42 421.612C373.419 421.528 373.396 421.446 373.352 421.374C373.309 421.303 373.247 421.244 373.173 421.204C372.16 420.66 368.748 422.106 366.956 422.984Z" fill="#407BFF"/>
<path d="M366.289 423.293C366.248 423.305 366.205 423.305 366.165 423.293C366.135 423.269 366.111 423.239 366.093 423.205C366.076 423.171 366.067 423.133 366.066 423.095C366.066 422.947 366.375 419.523 367.957 418.151C368.179 417.962 368.437 417.821 368.715 417.736C368.994 417.651 369.287 417.624 369.576 417.657C370.367 417.731 370.59 418.126 370.652 418.435C370.874 419.857 367.883 422.576 366.375 423.256L366.289 423.293ZM369.341 418.077C368.935 418.075 368.543 418.225 368.241 418.497C367.08 419.461 366.672 421.773 366.548 422.7C368.167 421.797 370.38 419.474 370.256 418.522C370.256 418.423 370.256 418.151 369.576 418.089L369.341 418.077Z" fill="#407BFF"/>
<path d="M266.271 235.273L278.458 232.183L272.649 243.888C272.649 243.888 264.405 244.246 261.686 239.648L266.271 235.273Z" fill="#E58A7B"/>
<path d="M288.309 236.62L282.92 246.162L272.649 243.888L278.458 232.183L288.309 236.62Z" fill="#E58A7B"/>
<path d="M274.169 144.34L276.753 144.068C276.753 144.068 275.158 145.762 274.169 144.34Z" fill="#263238"/>
<path d="M239.401 263.676L238.981 268.348C238.808 268.718 239.228 269.089 239.833 269.089H292.66C293.13 269.089 293.513 268.854 293.55 268.558L294.02 263.886C294.02 263.564 293.636 263.292 293.13 263.292H240.254C240.091 263.279 239.927 263.307 239.778 263.374C239.628 263.441 239.499 263.545 239.401 263.676Z" fill="#407BFF"/>
<path d="M246.508 269.596H245.086C244.802 269.596 244.592 269.448 244.604 269.275L245.272 263.194C245.272 263.021 245.544 262.873 245.828 262.873H247.2C247.484 262.873 247.694 263.021 247.682 263.194L247.015 269.275C247.027 269.448 246.78 269.596 246.508 269.596Z" fill="#263238"/>
<path d="M288.68 269.596H287.259C286.974 269.596 286.764 269.448 286.777 269.275L287.444 263.194C287.444 263.021 287.716 262.873 288 262.873H289.409C289.694 262.873 289.904 263.021 289.891 263.194L289.224 269.275C289.224 269.448 288.952 269.596 288.68 269.596Z" fill="#263238"/>
<path d="M267.594 269.596H266.173C265.888 269.596 265.678 269.448 265.691 269.275L266.358 263.194C266.358 263.021 266.63 262.873 266.914 262.873H268.323C268.607 262.873 268.818 263.021 268.805 263.194L268.138 269.275C268.113 269.448 267.878 269.596 267.594 269.596Z" fill="#263238"/>
<path d="M230.934 188.774C225.694 190.369 219.415 208.377 219.415 208.377L236.286 224.853C236.286 224.853 247.113 207.858 244.938 201.097C242.627 194.052 236.904 186.97 230.934 188.774Z" fill="#407BFF"/>
<path opacity="0.5" d="M230.934 188.774C225.694 190.369 219.415 208.377 219.415 208.377L236.286 224.853C236.286 224.853 247.113 207.858 244.938 201.097C242.627 194.052 236.904 186.97 230.934 188.774Z" fill="white"/>
<path d="M511.284 253.899H412.948V445.17H511.284V253.899Z" fill="#407BFF"/>
<path opacity="0.6" d="M511.284 253.899H412.948V445.17H511.284V253.899Z" fill="white"/>
<path d="M320.779 253.899H222.443V445.17H320.779V253.899Z" fill="#407BFF"/>
<path opacity="0.6" d="M320.779 253.899H222.443V445.17H320.779V253.899Z" fill="white"/>
<path d="M514.967 253.899H506.859V445.17H514.967V253.899Z" fill="#407BFF"/>
<path opacity="0.3" d="M514.967 253.899H506.859V445.17H514.967V253.899Z" fill="black"/>
<path d="M321.953 268.25H517.476V253.9L321.953 253.9V268.25Z" fill="#407BFF"/>
<path opacity="0.3" d="M321.953 268.25H517.476V253.9L321.953 253.9V268.25Z" fill="black"/>
<path d="M324.475 253.899H316.367V445.17H324.475V253.899Z" fill="#407BFF"/>
<path opacity="0.3" d="M324.475 253.899H316.367V445.17H324.475V253.899Z" fill="black"/>
<path d="M321.484 299.656H510.913V258.336H321.484V299.656Z" fill="#407BFF"/>
<path opacity="0.3" d="M321.484 299.656H510.913V258.336H321.484V299.656Z" fill="black"/>
<path d="M511.333 450.732H456.739C453.033 450.729 449.479 449.255 446.858 446.634C444.237 444.013 442.763 440.46 442.76 436.753V264.504C442.76 261.226 441.458 258.082 439.14 255.764C436.822 253.446 433.678 252.144 430.4 252.144H414.06V250.908H430.388C433.993 250.908 437.452 252.341 440.001 254.89C442.551 257.44 443.984 260.898 443.984 264.504V436.753C443.987 440.132 445.33 443.371 447.72 445.76C450.109 448.149 453.348 449.493 456.727 449.496H511.333C512.263 449.498 513.169 449.206 513.922 448.663C514.676 448.119 515.239 447.352 515.531 446.469C515.823 445.587 515.829 444.635 515.548 443.749C515.266 442.864 514.713 442.089 513.966 441.536L514.695 440.548C515.649 441.255 516.355 442.246 516.714 443.378C517.073 444.51 517.065 445.727 516.693 446.854C516.321 447.982 515.602 448.964 514.64 449.66C513.678 450.356 512.521 450.731 511.333 450.732Z" fill="#407BFF"/>
<path opacity="0.3" d="M511.333 450.732H456.739C453.033 450.729 449.479 449.255 446.858 446.634C444.237 444.013 442.763 440.46 442.76 436.753V264.504C442.76 261.226 441.458 258.082 439.14 255.764C436.822 253.446 433.678 252.144 430.4 252.144H414.06V250.908H430.388C433.993 250.908 437.452 252.341 440.001 254.89C442.551 257.44 443.984 260.898 443.984 264.504V436.753C443.987 440.132 445.33 443.371 447.72 445.76C450.109 448.149 453.348 449.493 456.727 449.496H511.333C512.263 449.498 513.169 449.206 513.922 448.663C514.676 448.119 515.239 447.352 515.531 446.469C515.823 445.587 515.829 444.635 515.548 443.749C515.266 442.864 514.713 442.089 513.966 441.536L514.695 440.548C515.649 441.255 516.355 442.246 516.714 443.378C517.073 444.51 517.065 445.727 516.693 446.854C516.321 447.982 515.602 448.964 514.64 449.66C513.678 450.356 512.521 450.731 511.333 450.732Z" fill="black"/>
<path d="M519.293 310.334H518.057V334.226H519.293V310.334Z" fill="#407BFF"/>
<path opacity="0.3" d="M519.293 310.334H518.057V334.226H519.293V310.334Z" fill="black"/>
<path d="M519.293 296.232H518.057V302.511H519.293V296.232Z" fill="#407BFF"/>
<path opacity="0.3" d="M519.293 296.232H518.057V302.511H519.293V296.232Z" fill="black"/>
<path d="M428.768 196.796H337.131L323.857 250.908H415.481L428.768 196.796Z" fill="#407BFF"/>
<path opacity="0.4" d="M428.768 196.796H337.131L323.857 250.908H415.481L428.768 196.796Z" fill="white"/>
<path d="M326.662 250.908L326.292 253.899H290.336L290.707 250.908H326.662Z" fill="#407BFF"/>
<path opacity="0.4" d="M326.662 250.908L326.292 253.899H290.336L290.707 250.908H326.662Z" fill="white"/>
<path d="M418.299 250.908L417.929 253.899H326.292L326.662 250.908H418.299Z" fill="#407BFF"/>
<path opacity="0.5" d="M418.299 250.908L417.929 253.899H326.292L326.662 250.908H418.299Z" fill="black"/>
<path d="M431.586 196.796H339.949L326.675 250.908H418.299L431.586 196.796Z" fill="#407BFF"/>
<path opacity="0.5" d="M431.586 196.796H339.949L326.675 250.908H418.299L431.586 196.796Z" fill="black"/>
<path d="M466.973 240.266C466.973 240.266 453.488 217.017 472.152 198.514C472.152 198.514 477.034 201.703 476.96 205.93C476.886 210.157 471.732 211.294 472.832 214.854C473.932 218.414 478.814 221.936 475.613 224.89C472.412 227.844 476.132 230.465 475.909 234.074C475.687 237.683 466.973 240.266 466.973 240.266Z" fill="#407BFF"/>
<path d="M467.999 242.392C467.999 242.392 473.462 216.077 449.879 204.422C449.879 204.422 446.245 208.983 447.667 213.074C449.088 217.165 454.317 216.51 454.391 220.255C454.465 224 450.955 228.845 454.922 230.637C458.89 232.43 456.158 236.101 457.53 239.462C458.902 242.824 467.999 242.392 467.999 242.392Z" fill="#407BFF"/>
<path opacity="0.5" d="M467.999 242.392C467.999 242.392 473.462 216.077 449.879 204.422C449.879 204.422 446.245 208.983 447.667 213.074C449.088 217.165 454.317 216.51 454.391 220.255C454.465 224 450.955 228.845 454.922 230.637C458.89 232.43 456.158 236.101 457.53 239.462C458.902 242.824 467.999 242.392 467.999 242.392Z" fill="black"/>
<path d="M447.333 236.558C447.333 236.558 447.79 253.862 464.983 253.862C482.176 253.862 482.621 236.558 482.621 236.558H447.333Z" fill="#407BFF"/>
<path opacity="0.5" d="M447.333 236.558C447.333 236.558 447.79 253.862 464.983 253.862C482.176 253.862 482.621 236.558 482.621 236.558H447.333Z" fill="black"/>
<path d="M354.917 123.18L340.234 104.207L325.55 123.18H332.459V147.739H348.008V123.18H354.917Z" fill="#407BFF"/>
<path d="M397.992 145.489C397.992 136.311 401.638 127.508 408.128 121.018C414.619 114.528 423.421 110.881 432.6 110.881V119.892C429.241 119.89 425.914 120.55 422.81 121.835C419.706 123.119 416.885 125.003 414.509 127.378C412.133 129.752 410.248 132.572 408.963 135.675C407.677 138.779 407.015 142.105 407.015 145.465L397.992 145.489Z" fill="#407BFF"/>
<path d="M397.992 145.489H407.015C407.015 152.275 409.71 158.783 414.508 163.581C419.307 168.379 425.814 171.074 432.6 171.074C437.089 171.083 441.5 169.897 445.38 167.638L449.904 175.512C444.643 178.549 438.675 180.148 432.6 180.148C426.524 180.148 420.556 178.549 415.295 175.511C410.034 172.474 405.665 168.105 402.628 162.843C399.591 157.582 397.992 151.614 397.992 145.539V145.489Z" fill="#407BFF"/>
<path opacity="0.5" d="M397.992 145.489H407.015C407.015 152.275 409.71 158.783 414.508 163.581C419.307 168.379 425.814 171.074 432.6 171.074C437.089 171.083 441.5 169.897 445.38 167.638L449.904 175.512C444.643 178.549 438.675 180.148 432.6 180.148C426.524 180.148 420.556 178.549 415.295 175.511C410.034 172.474 405.665 168.105 402.628 162.843C399.591 157.582 397.992 151.614 397.992 145.539V145.489Z" fill="white"/>
<path d="M432.6 119.892V110.857C440.243 110.827 447.68 113.329 453.752 117.971C459.823 122.613 464.188 129.134 466.164 136.517C468.14 143.9 467.616 151.729 464.675 158.783C461.733 165.838 456.54 171.72 449.904 175.512L445.393 167.688C450.307 164.89 454.155 160.543 456.336 155.325C458.516 150.108 458.906 144.315 457.444 138.852C455.982 133.39 452.75 128.566 448.255 125.136C443.76 121.705 438.255 119.861 432.6 119.892Z" fill="#407BFF"/>
<path opacity="0.7" d="M432.6 119.892V110.857C440.243 110.827 447.68 113.329 453.752 117.971C459.823 122.613 464.188 129.134 466.164 136.517C468.14 143.9 467.616 151.729 464.675 158.783C461.733 165.838 456.54 171.72 449.904 175.512L445.393 167.688C450.307 164.89 454.155 160.543 456.336 155.325C458.516 150.108 458.906 144.315 457.444 138.852C455.982 133.39 452.75 128.566 448.255 125.136C443.76 121.705 438.255 119.861 432.6 119.892Z" fill="black"/>
<path d="M400.106 60.564H368.575C367.451 60.564 366.372 61.0106 365.577 61.8057C364.782 62.6007 364.336 63.6791 364.336 64.8034V123.106C364.345 124.224 364.796 125.292 365.59 126.079C366.384 126.866 367.457 127.308 368.575 127.308H408.931C410.053 127.305 411.128 126.857 411.92 126.062C412.713 125.267 413.158 124.191 413.158 123.068V73.6285L400.106 60.564Z" fill="#263238"/>
<path d="M398.251 121.512H372.036C371.544 121.512 371.073 121.316 370.725 120.969C370.377 120.621 370.182 120.149 370.182 119.658C370.185 119.168 370.382 118.7 370.729 118.355C371.077 118.01 371.546 117.816 372.036 117.816H398.264C398.753 117.816 399.223 118.01 399.57 118.355C399.918 118.7 400.115 119.168 400.118 119.658C400.115 120.15 399.917 120.622 399.567 120.969C399.217 121.317 398.744 121.512 398.251 121.512Z" fill="#407BFF"/>
<path d="M385.891 70.118H372.036C371.546 70.118 371.077 69.9244 370.729 69.5794C370.382 69.2343 370.185 68.7659 370.182 68.2764C370.182 67.7847 370.377 67.3131 370.725 66.9654C371.073 66.6177 371.544 66.4224 372.036 66.4224H385.904C386.396 66.4224 386.867 66.6177 387.215 66.9654C387.563 67.3131 387.758 67.7847 387.758 68.2764C387.756 68.5198 387.707 68.7606 387.612 68.9849C387.517 69.2092 387.379 69.4127 387.206 69.5837C387.033 69.7548 386.828 69.8899 386.602 69.9816C386.376 70.0733 386.135 70.1196 385.891 70.118Z" fill="#407BFF"/>
<path d="M394.951 77.4598H372.036C371.546 77.4598 371.077 77.2662 370.729 76.9212C370.382 76.5761 370.185 76.1077 370.182 75.6182C370.182 75.1264 370.377 74.6549 370.725 74.3072C371.073 73.9595 371.544 73.7642 372.036 73.7642H394.964C395.453 73.7674 395.922 73.9642 396.267 74.3115C396.612 74.6589 396.805 75.1286 396.805 75.6182C396.805 75.8611 396.757 76.1015 396.664 76.3258C396.571 76.55 396.434 76.7536 396.262 76.9248C396.089 77.096 395.885 77.2314 395.66 77.3232C395.435 77.415 395.194 77.4614 394.951 77.4598Z" fill="#407BFF"/>
<path d="M405.482 84.8016H372.036C371.546 84.8016 371.077 84.608 370.729 84.2629C370.382 83.9179 370.185 83.4495 370.182 82.96C370.182 82.4682 370.377 81.9967 370.725 81.649C371.073 81.3013 371.544 81.106 372.036 81.106H405.494C405.986 81.106 406.458 81.3013 406.805 81.649C407.153 81.9967 407.348 82.4682 407.348 82.96C407.347 83.2034 407.297 83.4442 407.203 83.6685C407.108 83.8928 406.97 84.0963 406.797 84.2673C406.623 84.4383 406.418 84.5735 406.193 84.6652C405.967 84.7569 405.726 84.8032 405.482 84.8016Z" fill="#407BFF"/>
<path d="M405.482 92.1434H386.028C385.538 92.1434 385.068 91.9498 384.721 91.6047C384.374 91.2597 384.177 90.7913 384.174 90.3018C384.174 89.81 384.369 89.3385 384.717 88.9908C385.064 88.6431 385.536 88.4478 386.028 88.4478H405.482C405.974 88.4478 406.445 88.6431 406.793 88.9908C407.141 89.3385 407.336 89.81 407.336 90.3018C407.333 90.7913 407.136 91.2597 406.789 91.6047C406.441 91.9498 405.972 92.1434 405.482 92.1434Z" fill="#407BFF"/>
<path d="M377.104 92.1434H372.036C371.546 92.1434 371.077 91.9498 370.729 91.6047C370.382 91.2597 370.185 90.7913 370.182 90.3018C370.182 89.81 370.377 89.3385 370.725 88.9908C371.073 88.6431 371.544 88.4478 372.036 88.4478H377.116C377.608 88.4478 378.079 88.6431 378.427 88.9908C378.775 89.3385 378.97 89.81 378.97 90.3018C378.968 90.5452 378.919 90.786 378.824 91.0103C378.729 91.2346 378.591 91.4381 378.418 91.6091C378.245 91.7801 378.04 91.9153 377.814 92.007C377.588 92.0987 377.347 92.145 377.104 92.1434Z" fill="#407BFF"/>
<path d="M405.482 99.4852H372.036C371.544 99.4852 371.073 99.2899 370.725 98.9422C370.377 98.5945 370.182 98.1229 370.182 97.6312C370.185 97.1416 370.382 96.6732 370.729 96.3282C371.077 95.9832 371.546 95.7895 372.036 95.7896H405.494C405.984 95.7895 406.454 95.9832 406.801 96.3282C407.148 96.6732 407.345 97.1416 407.348 97.6312C407.348 97.8757 407.3 98.1178 407.206 98.3436C407.112 98.5693 406.975 98.7742 406.801 98.9466C406.628 99.1189 406.422 99.2552 406.195 99.3476C405.969 99.4401 405.727 99.4868 405.482 99.4852Z" fill="#407BFF"/>
<path d="M392.566 106.827H372.036C371.544 106.827 371.073 106.632 370.725 106.284C370.377 105.936 370.182 105.465 370.182 104.973C370.185 104.483 370.382 104.015 370.729 103.67C371.077 103.325 371.546 103.131 372.036 103.131H392.578C393.068 103.131 393.538 103.325 393.885 103.67C394.232 104.015 394.429 104.483 394.432 104.973C394.432 105.217 394.384 105.46 394.29 105.685C394.196 105.911 394.058 106.116 393.885 106.288C393.711 106.461 393.506 106.597 393.279 106.689C393.053 106.782 392.81 106.829 392.566 106.827Z" fill="#407BFF"/>
<path d="M405.482 106.827H399.994C399.505 106.824 399.036 106.627 398.691 106.28C398.346 105.932 398.153 105.463 398.153 104.973C398.153 104.485 398.347 104.016 398.692 103.671C399.037 103.325 399.506 103.131 399.994 103.131H405.482C405.972 103.131 406.441 103.325 406.789 103.67C407.136 104.015 407.333 104.483 407.336 104.973C407.336 105.465 407.141 105.936 406.793 106.284C406.445 106.632 405.974 106.827 405.482 106.827Z" fill="#407BFF"/>
<path d="M405.482 114.17H372.036C371.544 114.17 371.073 113.974 370.725 113.627C370.377 113.279 370.182 112.807 370.182 112.316C370.185 111.826 370.382 111.358 370.729 111.013C371.077 110.668 371.546 110.474 372.036 110.474H405.494C405.984 110.474 406.454 110.668 406.801 111.013C407.148 111.358 407.345 111.826 407.348 112.316C407.348 112.56 407.3 112.802 407.206 113.028C407.112 113.254 406.975 113.459 406.801 113.631C406.628 113.803 406.422 113.94 406.195 114.032C405.969 114.125 405.727 114.171 405.482 114.17Z" fill="#407BFF"/>
<g opacity="0.5">
<path opacity="0.5" d="M398.251 121.512H372.036C371.544 121.512 371.073 121.316 370.725 120.969C370.377 120.621 370.182 120.149 370.182 119.658C370.185 119.168 370.382 118.7 370.729 118.355C371.077 118.01 371.546 117.816 372.036 117.816H398.264C398.753 117.816 399.223 118.01 399.57 118.355C399.918 118.7 400.115 119.168 400.118 119.658C400.115 120.15 399.917 120.622 399.567 120.969C399.217 121.317 398.744 121.512 398.251 121.512Z" fill="white"/>
</g>
<g opacity="0.5">
<path opacity="0.5" d="M385.891 70.118H372.036C371.546 70.118 371.077 69.9244 370.729 69.5794C370.382 69.2343 370.185 68.7659 370.182 68.2764C370.182 67.7847 370.377 67.3131 370.725 66.9654C371.073 66.6177 371.544 66.4224 372.036 66.4224H385.904C386.396 66.4224 386.867 66.6177 387.215 66.9654C387.563 67.3131 387.758 67.7847 387.758 68.2764C387.756 68.5198 387.707 68.7606 387.612 68.9849C387.517 69.2092 387.379 69.4127 387.206 69.5837C387.033 69.7548 386.828 69.8899 386.602 69.9816C386.376 70.0733 386.135 70.1196 385.891 70.118Z" fill="white"/>
</g>
<g opacity="0.5">
<path opacity="0.5" d="M394.951 77.4598H372.036C371.546 77.4598 371.077 77.2662 370.729 76.9212C370.382 76.5761 370.185 76.1077 370.182 75.6182C370.182 75.1264 370.377 74.6549 370.725 74.3072C371.073 73.9595 371.544 73.7642 372.036 73.7642H394.964C395.453 73.7674 395.922 73.9642 396.267 74.3115C396.612 74.6589 396.805 75.1286 396.805 75.6182C396.805 75.8611 396.757 76.1015 396.664 76.3258C396.571 76.55 396.434 76.7536 396.262 76.9248C396.089 77.096 395.885 77.2314 395.66 77.3232C395.435 77.415 395.194 77.4614 394.951 77.4598Z" fill="white"/>
</g>
<g opacity="0.5">
<path opacity="0.5" d="M405.482 84.8016H372.036C371.546 84.8016 371.077 84.608 370.729 84.2629C370.382 83.9179 370.185 83.4495 370.182 82.96C370.182 82.4682 370.377 81.9967 370.725 81.649C371.073 81.3013 371.544 81.106 372.036 81.106H405.494C405.986 81.106 406.458 81.3013 406.805 81.649C407.153 81.9967 407.348 82.4682 407.348 82.96C407.347 83.2034 407.297 83.4442 407.203 83.6685C407.108 83.8928 406.97 84.0963 406.797 84.2673C406.623 84.4383 406.418 84.5735 406.193 84.6652C405.967 84.7569 405.726 84.8032 405.482 84.8016Z" fill="white"/>
</g>
<g opacity="0.5">
<path opacity="0.5" d="M405.482 92.1434H386.028C385.538 92.1434 385.068 91.9498 384.721 91.6047C384.374 91.2597 384.177 90.7913 384.174 90.3018C384.174 89.81 384.369 89.3385 384.717 88.9908C385.064 88.6431 385.536 88.4478 386.028 88.4478H405.482C405.974 88.4478 406.445 88.6431 406.793 88.9908C407.141 89.3385 407.336 89.81 407.336 90.3018C407.333 90.7913 407.136 91.2597 406.789 91.6047C406.441 91.9498 405.972 92.1434 405.482 92.1434Z" fill="white"/>
</g>
<g opacity="0.5">
<path opacity="0.5" d="M377.104 92.1434H372.036C371.546 92.1434 371.077 91.9498 370.729 91.6047C370.382 91.2597 370.185 90.7913 370.182 90.3018C370.182 89.81 370.377 89.3385 370.725 88.9908C371.073 88.6431 371.544 88.4478 372.036 88.4478H377.116C377.608 88.4478 378.079 88.6431 378.427 88.9908C378.775 89.3385 378.97 89.81 378.97 90.3018C378.968 90.5452 378.919 90.786 378.824 91.0103C378.729 91.2346 378.591 91.4381 378.418 91.6091C378.245 91.7801 378.04 91.9153 377.814 92.007C377.588 92.0987 377.347 92.145 377.104 92.1434Z" fill="white"/>
</g>
<g opacity="0.5">
<path opacity="0.5" d="M405.482 99.4852H372.036C371.544 99.4852 371.073 99.2899 370.725 98.9422C370.377 98.5945 370.182 98.1229 370.182 97.6312C370.185 97.1416 370.382 96.6732 370.729 96.3282C371.077 95.9832 371.546 95.7895 372.036 95.7896H405.494C405.984 95.7895 406.454 95.9832 406.801 96.3282C407.148 96.6732 407.345 97.1416 407.348 97.6312C407.348 97.8757 407.3 98.1178 407.206 98.3436C407.112 98.5693 406.975 98.7742 406.801 98.9466C406.628 99.1189 406.422 99.2552 406.195 99.3476C405.969 99.4401 405.727 99.4868 405.482 99.4852Z" fill="white"/>
</g>
<g opacity="0.5">
<path opacity="0.5" d="M392.566 106.827H372.036C371.544 106.827 371.073 106.632 370.725 106.284C370.377 105.936 370.182 105.465 370.182 104.973C370.185 104.483 370.382 104.015 370.729 103.67C371.077 103.325 371.546 103.131 372.036 103.131H392.578C393.068 103.131 393.538 103.325 393.885 103.67C394.232 104.015 394.429 104.483 394.432 104.973C394.432 105.217 394.384 105.46 394.29 105.685C394.196 105.911 394.058 106.116 393.885 106.288C393.711 106.461 393.506 106.597 393.279 106.689C393.053 106.782 392.81 106.829 392.566 106.827Z" fill="white"/>
</g>
<g opacity="0.5">
<path opacity="0.5" d="M405.482 106.827H399.994C399.505 106.824 399.036 106.627 398.691 106.28C398.346 105.932 398.153 105.463 398.153 104.973C398.153 104.485 398.347 104.016 398.692 103.671C399.037 103.325 399.506 103.131 399.994 103.131H405.482C405.972 103.131 406.441 103.325 406.789 103.67C407.136 104.015 407.333 104.483 407.336 104.973C407.336 105.465 407.141 105.936 406.793 106.284C406.445 106.632 405.974 106.827 405.482 106.827Z" fill="white"/>
</g>
<g opacity="0.5">
<path opacity="0.5" d="M405.482 114.17H372.036C371.544 114.17 371.073 113.974 370.725 113.627C370.377 113.279 370.182 112.807 370.182 112.316C370.185 111.826 370.382 111.358 370.729 111.013C371.077 110.668 371.546 110.474 372.036 110.474H405.494C405.984 110.474 406.454 110.668 406.801 111.013C407.148 111.358 407.345 111.826 407.348 112.316C407.348 112.56 407.3 112.802 407.206 113.028C407.112 113.254 406.975 113.459 406.801 113.631C406.628 113.803 406.422 113.94 406.195 114.032C405.969 114.125 405.727 114.171 405.482 114.17Z" fill="white"/>
</g>
<path d="M400.106 60.564V69.389C400.104 69.9462 400.213 70.4982 400.425 71.0133C400.637 71.5284 400.95 71.9964 401.344 72.3904C401.738 72.7844 402.206 73.0966 402.721 73.3091C403.236 73.5216 403.788 73.6301 404.345 73.6285H413.158L400.106 60.564Z" fill="#407BFF"/>
<path opacity="0.5" d="M400.106 60.564V69.389C400.104 69.9462 400.213 70.4982 400.425 71.0133C400.637 71.5284 400.95 71.9964 401.344 72.3904C401.738 72.7844 402.206 73.0966 402.721 73.3091C403.236 73.5216 403.788 73.6301 404.345 73.6285H413.158L400.106 60.564Z" fill="white"/>
</svg>
