<svg width="465" height="389" viewBox="0 0 465 389" fill="none" xmlns="http://www.w3.org/2000/svg">
<path fill-rule="evenodd" clip-rule="evenodd" d="M335.817 2.60137C338.035 4.02467 340.903 7.38631 342.191 10.0742C344.252 14.3729 345.003 14.9603 348.438 14.9603C351.229 14.9603 353.606 16.0824 356.775 18.8957C360.793 22.4654 361.206 23.3828 361.206 28.7564C361.206 34.13 360.793 35.0474 356.775 38.6172C353.27 41.7282 351.407 42.5272 347.876 42.4295L343.409 42.3065L348.396 41.2223C358.838 38.954 362.952 28.0172 356.141 20.6317C353.54 17.8115 351.783 17.016 347.703 16.8125C342.891 16.5722 342.448 16.2687 341.016 12.2333C339.016 6.59993 336.35 3.85107 331.323 2.24383C321.068 -1.03619 309.593 6.93449 309.593 17.3367C309.593 18.6841 307.991 21.2364 306.034 23.0081C297.187 31.0155 306.278 44.8944 316.98 39.7208C321.22 37.6721 321.458 37.6296 321.458 38.9184C321.458 40.3911 315.833 42.5525 312.002 42.5525C307.355 42.5525 301.549 37.5985 300.63 32.8504C299.776 28.4426 302.379 22.6034 306.046 20.7018C307.65 19.8706 308.408 18.2921 308.411 15.7824C308.426 3.574 324.949 -4.37254 335.817 2.60137ZM170.763 7.53232C173.043 8.52449 176.183 10.472 177.742 11.8608C181.822 15.4926 186.175 25.1258 186.158 30.4809C186.143 35.474 182.333 44.8518 180.319 44.8518C179.634 44.8518 180.141 42.9192 181.448 40.5578C185.241 33.6989 184.712 24.7027 180.119 17.984C175.346 11.0009 169.488 8.06232 160.343 8.06232C154.566 8.06232 152.451 8.66015 147.915 11.5711C135.126 19.7775 134.076 37.9457 145.835 47.5329C147.968 49.2723 149.338 51.0566 148.882 51.5004C148.424 51.943 145.745 49.9403 142.925 47.05C131.938 35.7821 133.72 18.7807 146.827 9.85581C152.972 5.671 164.022 4.59835 170.763 7.53232ZM164.62 16.2077C173.104 17.9173 178.397 27.3251 175.042 34.7313L173.321 38.5286L173.96 33.262C175.443 21.0375 163.873 13.2818 153.393 19.474C146.751 23.3989 145.539 34.5554 151.255 39.1518C152.2 39.9128 152.959 41.1177 152.94 41.8305C152.921 42.5444 151.319 41.4373 149.38 39.3725C146.694 36.5121 145.855 34.514 145.855 30.981C145.855 20.3581 153.877 14.0429 164.62 16.2077ZM219.708 17.9989C220.03 18.5404 220.929 20.8938 221.705 23.2276C222.882 26.7663 223.744 27.547 226.903 27.9298C230.516 28.3678 230.484 28.3966 226.203 28.5725C222.562 28.7219 221.513 28.269 220.642 26.1697C219.681 23.8519 219.549 24.0014 219.376 27.6067C219.269 29.8199 218.762 32.924 218.251 34.5048C217.35 37.2858 217.253 37.2238 215.274 32.6193C213.271 27.9585 213.129 27.8723 208.453 28.4793C204.445 29.0001 203.351 28.6794 201.636 26.4778C199.603 23.8646 199.592 23.8772 198.787 29.7543C198.342 32.9999 197.563 35.6544 197.054 35.6544C196.128 35.6544 192.093 28.2632 192.168 26.7054C192.19 26.2524 193.236 27.0767 194.491 28.5368L196.775 31.1903L197.575 25.3488C198.014 22.1366 198.763 19.2739 199.238 18.99C199.714 18.7048 201.06 20.5271 202.228 23.0391C204.492 27.9034 206.757 28.6966 210.59 25.9662C212.697 24.4647 213.065 24.636 214.919 27.9781L216.946 31.6306L217.013 25.8822C217.08 20.2764 218.533 16.0238 219.708 17.9989ZM124.714 17.8771C125.081 18.4852 125.754 21.4744 126.21 24.5187C126.903 29.1427 127.318 29.8279 128.735 28.6886C131.008 26.8606 130.875 28.1793 128.42 31.8099C126.571 34.5462 126.339 34.6117 125.537 32.632C125.057 31.4489 124.57 28.6702 124.455 26.4571L124.245 22.4332L122.956 25.5948C122.069 27.7689 120.812 28.7564 118.929 28.7564C117.424 28.7564 116.192 28.1528 116.192 27.4147C116.192 25.3028 114.542 27.4205 113.067 31.426L111.721 35.0796L110.489 32.0744C109.81 30.4223 108.413 28.7576 107.385 28.3747C106.355 27.9919 105.505 26.7571 105.496 25.6305C105.48 23.8876 105.306 23.8404 104.327 25.3074C103.695 26.2559 103.169 28.4242 103.158 30.1257C103.135 34.1921 101.217 35.2498 100.299 31.7019C99.867 30.0337 98.5072 28.7162 96.909 28.4184C94.9821 28.0586 95.3131 27.8769 98.0979 27.7631C101.253 27.6355 101.956 27.1365 101.971 25.02C101.992 21.5353 103.231 17.2597 104.219 17.2597C104.66 17.2597 105.646 19.5223 106.409 22.2884C108.272 29.0346 112.214 30.3625 113.327 24.6164C114.265 19.766 115.575 19.6407 117.232 24.244C118.422 27.5493 120.872 28.0114 120.992 24.9522C121.092 22.378 124.043 16.7665 124.714 17.8771ZM328.138 35.6544C328.138 42.2938 327.943 45.0105 327.703 41.6902C327.463 38.37 327.463 32.9389 327.703 29.6187C327.943 26.2984 328.138 29.0151 328.138 35.6544ZM166.473 37.9538C168.327 43.0124 170.286 47.1512 170.826 47.1512C171.365 47.1512 177.773 54.5229 185.067 63.534L198.327 79.9168L206.777 83.0784C211.425 84.8179 215.636 86.24 216.137 86.24C216.636 86.24 217.045 84.435 217.045 82.2288C217.045 77.3979 220.603 67.951 224.573 62.2372C226.165 59.947 227.8 56.2152 228.207 53.9457C229.115 48.8837 232.745 45.4669 238.948 43.839C249.944 40.951 259.709 48.2687 269.126 66.453C276.104 79.9249 280.579 84.5305 297.135 95.2719C311.414 104.537 317.502 111.974 318.678 121.592C319.555 128.771 316.872 136.782 312.466 140.14C310.886 141.345 309.593 142.807 309.593 143.39C309.593 143.973 315.199 158.98 322.052 176.739C328.904 194.498 334.51 210.139 334.51 211.498C334.51 212.857 333.644 215.591 332.584 217.575C331.297 219.988 330.609 224.443 330.508 231.027C330.387 238.946 329.803 241.921 327.524 246.241C323.478 253.909 317.64 259.254 308.604 263.563L300.736 267.313L324.743 267.625L348.748 267.935V277.11V286.283H292.389H236.03V277.114V267.947L254.717 267.63L273.405 267.313L264.506 264.544C252.986 260.958 232.249 252.56 225.616 248.793C222.757 247.17 220.151 246.101 219.824 246.418C219.084 247.135 221.538 359.323 222.476 367.664L223.16 373.741L206.16 381.62C196.812 385.953 188.761 389.266 188.273 388.983C186.767 388.112 187.284 382.829 189.273 378.77C190.362 376.545 193.629 373.378 196.985 371.291C200.188 369.3 202.807 367.147 202.807 366.509C202.807 364.788 197.398 334.019 192.067 305.414C189.49 291.591 187.383 279.71 187.383 279.012C187.383 276.749 184.396 280.789 174.357 296.63C168.948 305.166 162.735 314.842 160.553 318.132L156.583 324.113L147.956 320.304C143.211 318.208 135.399 314.576 130.596 312.232L121.862 307.97L124.45 305.302C127.977 301.664 132.975 300.923 139.5 303.068C142.498 304.056 145.358 304.433 145.852 303.907C146.347 303.383 153.197 288.849 161.074 271.612L175.397 240.27L173.507 231.826C172.466 227.182 171.97 222.011 172.404 220.333C173.651 215.522 179.483 210.088 185.493 208.141C190.367 206.561 191.341 205.655 193.886 200.331C196.444 194.982 196.54 194.308 194.744 194.302C193.632 194.298 191.29 193.571 189.539 192.686C187.789 191.801 184.585 190.73 182.42 190.308C175.203 188.898 174.576 188.507 168.988 181.931C164.114 176.194 163.513 174.899 164.095 171.415C164.971 166.191 160.965 159.396 157.618 160.425C156.151 160.877 154.367 160.124 152.413 158.23C149.474 155.381 149.395 153.167 152.117 149.759C153.564 147.948 159.17 147.888 161.004 149.665C162.06 150.688 163.489 150.688 167.015 149.665C169.559 148.927 171.966 148.322 172.366 148.322C172.765 148.322 176.901 153.824 181.556 160.547L190.02 172.771L198.491 172.047C203.149 171.648 213.281 170.725 221.006 169.996L235.052 168.67L234.37 165.682C233.995 164.038 232.507 153.745 231.064 142.809L228.439 122.923L208.677 108.893L188.914 94.8626L175.394 75.9344C167.957 65.5229 161.685 56.2669 161.457 55.3656C161.228 54.4631 160.029 52.1166 158.791 50.1507C156.286 46.1671 155.855 41.9455 157.834 40.7601C158.549 40.3313 158.88 38.3608 158.57 36.381C157.941 32.3779 159.399 28.7564 161.638 28.7564C162.442 28.7564 164.617 32.8952 166.473 37.9538ZM160.756 36.1867C161.195 38.4528 160.97 40.3026 160.2 40.7636C158.155 41.988 158.74 47.4524 161.253 50.6002L163.548 53.4744L166.007 51.1106L168.465 48.7481L165.265 39.9542C162.084 31.2087 159.35 28.9254 160.756 36.1867ZM337.63 43.7022C337.63 50.3415 337.435 53.0582 337.195 49.7379C336.955 46.4177 336.955 40.9866 337.195 37.6664C337.435 34.3461 337.63 37.0628 337.63 43.7022ZM165.6 53.8699C163.458 56.1635 163.651 56.5221 176.984 74.9583L190.548 93.7129L209.433 107.207L228.317 120.701L229.308 116.979C229.854 114.932 231.14 112.349 232.166 111.24C233.798 109.478 233.849 108.215 232.571 101.283C231.25 94.1233 230.795 93.2726 227.932 92.6138C226.186 92.2126 218.588 89.5281 211.048 86.6505L197.338 81.4172L184.351 65.5724C170.702 48.9182 170.4 48.7297 165.6 53.8699ZM220.479 74.9755C219.135 79.2132 218.385 83.7452 218.811 85.0478C219.861 88.2542 224.746 90.5088 233.655 91.8987C242.382 93.2611 244.195 94.2877 237.872 94.2877H233.387L234.213 99.7487C235.211 106.35 236.21 107.537 239.384 105.891C242.375 104.34 247.943 104.273 251.923 105.738C254.731 106.773 254.852 106.673 253.853 104.128C253.268 102.634 250.893 97.7655 248.577 93.3082C244.978 86.3849 244.47 84.4592 245.087 80.0893C245.721 75.6113 245.486 74.8054 243.201 73.6212C241.765 72.8762 239.895 72.5256 239.047 72.8406C237.13 73.5534 230.668 67.1106 229.478 63.3006L228.597 60.4793L225.76 63.8755C224.2 65.7425 221.824 70.7378 220.479 74.9755ZM439.711 72.4233C454.419 75.4504 464.948 88.4601 465 103.673C465.047 117.781 455.101 130.83 441.512 134.487C439.109 135.134 432.268 135.666 426.308 135.669L415.473 135.676L417.06 139.987C418.13 142.892 418.665 150.429 418.7 163.09L418.752 181.881L391.759 181.439C361.685 180.945 359.875 180.567 351.166 172.943C343.384 166.131 341.077 160.895 341.077 150.047C341.077 139.11 343.326 134.094 351.502 126.791C357.922 121.057 366.069 118.431 377.44 118.431H385.53V107.693C385.53 98.0161 385.888 96.2583 389.158 89.919C395.82 77.0013 404.665 72.2347 422.905 71.7335C429.431 71.5541 436.993 71.8645 439.711 72.4233ZM117.154 74.7881C121.045 78.2992 121.012 82.9842 117.069 87.1023C114.663 89.6155 113.931 89.689 91.2754 89.689C68.4375 89.689 67.906 89.635 65.3787 87.0287C61.9521 83.4935 62.0256 78.1475 65.5448 74.9434C68.1706 72.5532 69.3061 72.444 91.425 72.444C113.066 72.444 114.726 72.5957 117.154 74.7881ZM50.3943 75.2664C51.996 76.8185 53.3072 79.4282 53.3072 81.0665C53.3072 82.7048 51.996 85.3145 50.3943 86.8666C47.7661 89.4143 46.5132 89.689 37.5503 89.689C28.7014 89.689 27.3357 89.3982 25.0374 87.0287C21.6107 83.4935 21.6843 78.1475 25.2035 74.9434C27.5646 72.7946 29.3218 72.444 37.7164 72.444C46.5037 72.444 47.7744 72.7268 50.3943 75.2664ZM407.328 75.4515C400.044 78.3981 394.27 83.5107 390.963 89.9397C388.31 95.0971 387.903 97.3643 387.903 106.971V118.054L395.13 120.001C400.706 121.503 403.781 123.253 408.593 127.663L414.828 133.377L426.579 133.37C441.607 133.362 445.686 132.197 452.998 125.827C459.61 120.068 463.839 111.35 463.839 103.485C463.839 92.377 455.841 80.7894 444.855 75.9815C437.788 72.8877 414.481 72.5589 407.328 75.4515ZM65.6978 77.5565C64.0593 79.9789 64.0166 80.817 65.3894 83.5923L66.9817 86.8149L90.5754 87.1276C111.278 87.4012 114.439 87.2035 116.367 85.5123C119.092 83.1233 119.187 79.6133 116.602 76.8461C114.825 74.9434 112.397 74.7433 91.1189 74.7433H67.5998L65.6978 77.5565ZM432.054 95.1396C427.95 95.365 421.543 95.3638 417.816 95.1362C414.089 94.9086 417.447 94.7246 425.278 94.7269C433.109 94.7292 436.158 94.9155 432.054 95.1396ZM118.657 106.846C122.873 110.932 123.03 113.832 119.264 118.079C116.465 121.235 116.097 121.312 102.356 121.626C87.0064 121.975 83.6865 121.11 80.7179 115.985C79.2917 113.523 79.2467 112.392 80.4652 109.54C82.6164 104.509 86.1758 103.485 101.508 103.485C115.046 103.485 115.224 103.52 118.657 106.846ZM63.5538 104.799C66.1167 106.033 68.7318 110.299 68.7318 113.247C68.7318 114.131 67.4444 116.305 65.8699 118.079L63.0092 121.305L37.7556 121.679C23.8651 121.883 10.7351 121.73 8.57571 121.338C0.757782 119.916 -2.53351 112.42 2.18048 106.774C4.43723 104.073 4.57486 104.059 32.7331 103.82C50.7918 103.667 61.9354 104.021 63.5538 104.799ZM4.09546 107.346C1.13748 109.443 1.17786 115.65 4.1655 117.84C5.99866 119.184 11.8315 119.515 34.2292 119.544C58.4578 119.576 62.2973 119.337 64.1886 117.678C66.8903 115.308 66.9888 110.664 64.3951 107.887C62.5987 105.963 60.0489 105.784 34.3658 105.784C12.5909 105.784 5.8064 106.134 4.09546 107.346ZM235.338 110.973L230.918 115.012L231.736 129.655C232.185 137.709 233.495 150.101 234.645 157.192L236.738 170.086L233.714 170.64C232.051 170.946 220.096 172.115 207.148 173.24L183.606 175.286L184.364 179.911C184.782 182.455 186.246 186.128 187.618 188.075L190.113 191.611L223.633 195.466C255.931 199.18 257.269 199.247 260.335 197.301C266.217 193.567 268.021 187.4 267.942 171.316C267.903 163.412 267.238 150.219 266.466 141.999C265.145 127.955 264.76 126.487 260.071 117.659C254.8 107.737 254.164 107.28 245.309 107.067C240.497 106.951 239.17 107.471 235.338 110.973ZM438.329 110.383C437.917 111.03 432.187 111.533 425.208 111.533C417.74 111.533 412.82 111.076 412.82 110.383C412.82 109.686 417.984 109.233 425.941 109.233C434.387 109.233 438.802 109.643 438.329 110.383ZM171.072 123.011C180.622 130.291 170.973 145.152 160.201 139.754C156.264 137.781 154.16 134.804 154.16 131.207C154.16 122.55 164.128 117.719 171.072 123.011ZM160.286 125.189C159.413 125.726 158.879 127.398 159.1 128.908C159.399 130.96 160.244 131.652 162.449 131.652C165.805 131.652 167.072 128.511 164.792 125.849C163.151 123.933 162.489 123.835 160.286 125.189ZM269.286 153.511C270.963 176.473 270.385 186.525 267.027 192.824C263.691 199.084 260.765 200.393 250.627 200.166L241.962 199.97V203.448C241.962 207.895 247.939 213.439 258.695 218.97C273.958 226.818 294.336 228.689 314.526 224.096C327.081 221.24 332.12 217.875 332.168 212.314C332.184 210.315 326.711 194.082 320.006 176.24C308.817 146.47 307.618 143.868 305.44 144.624C304.135 145.077 299.864 145.438 295.948 145.424C287.83 145.398 277.667 141.186 272.078 135.535C270.292 133.728 268.602 132.474 268.319 132.748C268.038 133.02 268.472 142.364 269.286 153.511ZM115.006 136.54C118.62 138.289 119.205 139.166 119.517 143.306C119.819 147.318 119.376 148.442 116.687 150.492C113.638 152.815 112.227 152.921 84.173 152.921C66.3611 152.921 53.4151 152.437 51.1975 151.687C46.0445 149.947 44.2209 144.657 47.1171 139.852C48.2823 137.918 50.552 135.981 52.1609 135.546C53.7711 135.111 67.6343 134.704 82.9699 134.642C107.293 134.545 111.383 134.786 115.006 136.54ZM189.183 140.336C189.701 141.921 189.355 143.456 188.23 144.544C185.417 147.27 181.226 145.395 181.678 141.613C182.169 137.491 187.93 136.512 189.183 140.336ZM389.317 149.661C389.044 151.944 389.588 152.92 391.45 153.492C395.883 154.855 399.105 150.439 395.926 147.359C393.443 144.953 389.724 146.248 389.317 149.661ZM376.126 148.164C374.582 150.959 377.12 154.48 380.256 153.895C382.649 153.449 383.814 150.489 382.701 147.681C381.765 145.318 377.526 145.63 376.126 148.164ZM362.534 148.588C360.754 151.339 364.105 154.611 367.599 153.536C370.059 152.781 371.102 148.521 369.264 146.74C367.864 145.384 363.903 146.471 362.534 148.588ZM167.461 151.359C165.966 151.746 163.94 153.571 162.957 155.412C161.223 158.662 161.32 158.969 166.268 165.824C169.801 170.721 172.456 173.181 174.924 173.842C178.608 174.829 187.38 173.992 187.385 172.652C187.391 171.107 172.51 150.691 171.365 150.672C170.712 150.662 168.955 150.97 167.461 151.359ZM151.787 152.921C151.787 153.553 152.588 154.071 153.567 154.071C154.546 154.071 155.347 153.553 155.347 152.921C155.347 152.289 154.546 151.771 153.567 151.771C152.588 151.771 151.787 152.289 151.787 152.921ZM173.145 156.236C173.145 157.3 169.069 158.659 166.026 158.608C165.047 158.592 166.042 157.823 168.238 156.9C172.918 154.932 173.145 154.901 173.145 156.236ZM176.704 160.653C176.704 161.247 174.835 162.289 172.551 162.968C170.267 163.646 168.399 163.793 168.399 163.295C168.399 162.796 169.332 162.126 170.475 161.808C171.618 161.49 173.485 160.857 174.628 160.401C175.77 159.946 176.704 160.059 176.704 160.653ZM300.567 168.536C301.966 172.068 301.208 179.995 299.038 184.537C296.666 189.5 289.943 196.346 288.661 195.104C288.228 194.684 289.252 193.291 290.937 192.008C296.765 187.565 299.361 181.965 299.282 173.998C299.209 166.347 299.392 165.567 300.567 168.536ZM117.069 169.304C121.012 173.422 121.045 178.107 117.154 181.618C114.724 183.812 113.067 183.962 91.2588 183.962C68.4375 183.962 67.906 183.907 65.3787 181.302C61.9521 177.767 62.0256 172.421 65.5448 169.216C68.1706 166.826 69.3061 166.717 91.4416 166.717C113.925 166.717 114.664 166.792 117.069 169.304ZM66.6494 170.454C63.733 173.985 63.8101 176.999 66.8962 179.989L69.9539 182.952L92.4311 182.594C113.284 182.263 115.038 182.072 116.699 179.938C119.058 176.91 119.022 173.711 116.602 171.119C114.825 169.218 112.4 169.016 91.2363 169.016C73.9394 169.016 67.5263 169.391 66.6494 170.454ZM168.612 178.252C174.967 186.266 176.266 187.333 180.56 188.062C184.803 188.782 186.693 187.405 183.823 185.687C183.171 185.296 182.637 183.256 182.637 181.155C182.637 177.202 180.794 175.969 174.834 175.931C173.48 175.921 171.078 174.573 169.495 172.933C166.709 170.045 166.607 170.028 166.239 172.367C166.029 173.694 167.097 176.342 168.612 178.252ZM439.927 192.344C450.791 206.596 454.853 219.043 454.07 235.697C453.487 248.107 450.459 256.195 443.541 263.83C439.769 267.992 439.471 268.928 438.806 278.714C436.376 314.443 402.996 344.685 362.253 348.067C332.018 350.578 305.31 341.403 283.193 320.909C280.094 318.036 277.557 315.171 277.557 314.541C277.557 313.912 279.827 315.502 282.6 318.076C296.075 330.582 314.402 340.726 330.357 344.508C342.079 347.288 364.493 347.26 375.444 344.454C386.106 341.72 398.638 335.965 406.778 330.064C424.157 317.462 437.736 293.626 437.736 275.72V270.238L432.1 273.708C419.386 281.536 405.767 282.352 392.897 276.057C379.176 269.346 371.849 258.31 372.683 245.613C373.519 232.901 381.756 226.278 396.9 226.14C411.519 226.007 427.024 236.9 434.276 252.396C436.18 256.463 437.736 260.805 437.736 262.047C437.736 268.616 442.971 263.968 448.637 252.368C452.279 244.911 452.566 243.475 452.546 232.823C452.514 216.262 448.248 205.505 435.331 189.423C433.935 187.685 433.354 186.262 434.04 186.262C434.727 186.262 437.376 188.999 439.927 192.344ZM309.658 190.639C307.943 196.436 304.922 201.037 300.992 203.838C296.202 207.253 290.044 209.667 288 208.93C286.974 208.559 287.251 208.103 288.829 207.567C300.1 203.738 306.094 198.447 307.829 190.794C308.25 188.933 309.05 187.411 309.605 187.411C310.16 187.411 310.184 188.864 309.658 190.639ZM172.939 249.781L147.463 305.253L154.611 308.835L161.759 312.418L184.163 277.794C230.874 205.606 227.524 210.268 234.25 208.104C239.189 206.516 240.245 205.682 240.559 203.12C240.776 201.341 240.276 199.808 239.372 199.483C237.983 198.984 205.121 194.731 200.316 194.429C198.918 194.34 191.685 208.965 172.939 249.781ZM232.226 210.286C230.413 210.962 222.634 221.912 208.917 243.098L188.328 274.895L192.107 295.822C204.544 364.681 204.62 365.042 206.677 364.884C207.761 364.8 211.073 363.355 214.034 361.673L219.418 358.616L219.346 339.982C219.307 329.734 218.842 304.017 218.313 282.834C217.783 261.651 217.549 244.105 217.791 243.842C218.033 243.578 225.039 246.484 233.36 250.297C255.829 260.598 275.617 266.739 286.34 266.739C302.423 266.739 319.193 258.257 325.031 247.17C328.467 240.642 330.123 232.828 329.256 227.225L328.474 222.174L321.379 224.313C303.541 229.693 282.095 229.67 266.135 224.255C259.422 221.978 244.921 213.286 241.847 209.695C240.37 207.972 238.064 208.113 232.226 210.286ZM183.391 210.84C181.238 211.712 178.261 213.911 176.777 215.726C174.425 218.603 174.154 219.965 174.669 226.318C175.496 236.49 176.903 237.129 180.653 229.034C190.857 207.002 190.726 207.871 183.391 210.84ZM110.585 225.089L119.753 234.026L110.279 243.152L100.804 252.278L96.8734 248.586C94.7115 246.556 92.4596 244.895 91.8687 244.895C91.2778 244.895 89.0341 246.548 86.883 248.569L82.9699 252.243L79.0567 248.569C76.9056 246.548 74.6619 244.895 74.071 244.895C73.4802 244.895 71.2282 246.556 69.0664 248.586L65.1355 252.278L55.6529 243.144L46.1691 234.009L55.6648 224.808L65.1616 215.606L69.5813 219.889L74.0011 224.172L78.4861 219.928L82.9699 215.686L87.4763 219.95L91.9826 224.214L96.0143 220.184C98.2319 217.967 100.355 216.153 100.732 216.153C101.108 216.153 105.542 220.175 110.585 225.089ZM78.7898 221.929L75.3537 225.404L79.7402 229.655L84.1267 233.905L79.7319 238.267L75.3371 242.628L79.1481 246.322L82.9604 250.015L91.2719 242.024L99.5834 234.033L91.6053 226.243C87.2164 221.958 83.3116 218.452 82.9272 218.452C82.5427 218.452 80.6811 220.017 78.7898 221.929ZM56.5368 226.243L48.5587 234.033L56.8655 242.019L65.1722 250.006L73.479 242.019L81.7858 234.033L73.8077 226.243C69.4188 221.958 65.5341 218.452 65.1722 218.452C64.8104 218.452 60.9257 221.958 56.5368 226.243ZM384.343 230.284C378.582 233.024 373.665 240.297 373.665 246.079C373.665 256.848 381.32 268.076 392.9 274.292C398.606 277.356 400.195 277.66 410.446 277.655C420.329 277.65 422.449 277.275 427.651 274.617C430.914 272.95 434.526 270.575 435.678 269.34C437.682 267.192 437.67 266.773 435.408 259.677C427.893 236.102 402.655 221.575 384.343 230.284ZM85.5909 296.616C91.2458 298.268 95.7343 302.234 98.8857 308.36C100.573 311.641 101.954 315.225 101.954 316.323C101.954 317.421 102.998 318.64 104.275 319.033C107.707 320.088 112.633 326.28 112.633 329.541C112.633 334.177 109.208 339.23 104.88 340.983C100.082 342.925 99.581 342.971 99.581 341.467C99.581 340.835 100.673 340.318 102.007 340.318C103.342 340.318 105.745 339.047 107.347 337.495C113.083 331.936 110.332 322.628 102.251 320.253C100.461 319.727 99.581 318.57 99.581 316.747C99.581 310.335 94.2524 302.829 87.15 299.237C82.2117 296.74 72.2153 296.938 67.4776 299.627C60.2363 303.737 56.5499 309.545 55.7003 318.178C55.0478 324.807 54.7915 325.462 53.955 322.641C53.3902 320.736 53.4923 317.148 54.1935 314.176L55.412 309.018L51.2082 309.679C46.0789 310.485 40.7776 315.182 38.954 320.535C36.282 328.379 42.4743 338.276 51.1003 339.947C52.9666 340.31 54.4936 341.114 54.4936 341.735C54.4936 343.281 48.834 341.805 44.2375 339.06C39.756 336.383 36.696 330.596 36.696 324.797C36.696 316.02 42.6096 309.399 51.9604 307.705C54.3999 307.263 57.7174 305.22 60.4867 302.455C66.7574 296.195 76.4382 293.943 85.5909 296.616ZM88.5227 342.617C88.5227 346.727 88.3068 348.409 88.0446 346.353C87.7812 344.298 87.7812 340.936 88.0446 338.88C88.3068 336.825 88.5227 338.507 88.5227 342.617ZM78.2238 346.641C78.2238 353.156 77.7445 357.563 77.0374 357.563C76.3302 357.563 75.8508 353.156 75.8508 346.641C75.8508 340.126 76.3302 335.719 77.0374 335.719C77.7445 335.719 78.2238 340.126 78.2238 346.641ZM65.9791 342.617C65.9791 346.727 65.7631 348.409 65.5009 346.353C65.2375 344.298 65.2375 340.936 65.5009 338.88C65.7631 336.825 65.9791 338.507 65.9791 342.617Z" fill="#1C1C1C"/>
</svg>
