<svg width="148" height="244" viewBox="0 0 148 244" fill="none" xmlns="http://www.w3.org/2000/svg">
<path d="M42.8 188L41.3991 190.653L41.4108 190.659L41.4226 190.665L42.8 188ZM14.8 162L12.2221 163.534L12.2329 163.553L12.244 163.571L14.8 162ZM14.8 86.2L12.2356 84.6431L12.2303 84.652L14.8 86.2ZM42.8 60.2L44.1775 62.8651L44.1892 62.859L44.2009 62.8528L42.8 60.2ZM119.2 58L117.969 60.7358L119.2 58ZM145.6 78.8L147.598 81.0381L149.672 79.1864L147.983 76.9776L145.6 78.8ZM115.8 105.4L113.449 107.264L115.425 109.756L117.798 107.638L115.8 105.4ZM61.4 98.6L63.5669 100.675L63.5778 100.663L63.5886 100.652L61.4 98.6ZM61.4 149.6L59.2114 151.652L59.2222 151.663L59.2331 151.675L61.4 149.6ZM115.8 142.6L117.798 140.362L115.425 138.244L113.449 140.736L115.8 142.6ZM145.6 169.2L147.983 171.022L149.672 168.814L147.598 166.962L145.6 169.2ZM119.2 190L117.969 187.264L119.2 190ZM82.8 194.2C68.4268 194.2 55.574 191.225 44.1775 185.335L41.4226 190.665C53.7594 197.041 67.5733 200.2 82.8 200.2V194.2ZM44.2009 185.347C32.7927 179.323 23.8652 171.023 17.356 160.429L12.244 163.571C19.3348 175.111 29.0739 184.144 41.3991 190.653L44.2009 185.347ZM17.3779 160.466C11.0106 149.769 7.8 137.64 7.8 124H1.8C1.8 138.626 5.25603 151.831 12.2221 163.534L17.3779 160.466ZM7.8 124C7.8 110.359 11.0107 98.3041 17.3697 87.748L12.2303 84.652C5.25597 96.2293 1.8 109.374 1.8 124H7.8ZM17.3644 87.7569C23.8723 77.038 32.7907 68.7504 44.1775 62.8651L41.4226 57.5349C29.076 63.9163 19.3277 72.962 12.2356 84.6431L17.3644 87.7569ZM44.2009 62.8528C55.5927 56.8369 68.4371 53.8 82.8 53.8V47.8C67.5629 47.8 53.7406 51.0298 41.3991 57.5472L44.2009 62.8528ZM82.8 53.8C96.0441 53.8 107.747 56.136 117.969 60.7358L120.431 55.2642C109.319 50.264 96.7559 47.8 82.8 47.8V53.8ZM117.969 60.7358C128.193 65.3368 136.594 71.9611 143.217 80.6223L147.983 76.9776C140.74 67.5056 131.54 60.2632 120.431 55.2642L117.969 60.7358ZM143.602 76.5619L113.802 103.162L117.798 107.638L147.598 81.0381L143.602 76.5619ZM118.151 103.536C109.035 92.0367 98.0267 86 85.2 86V92C95.84 92 105.231 96.8966 113.449 107.264L118.151 103.536ZM85.2 86C74.6182 86 65.8521 89.4648 59.2114 96.5482L63.5886 100.652C68.9479 94.9352 76.0485 92 85.2 92V86ZM59.2331 96.5253C52.5817 103.472 49.4 112.747 49.4 124H55.4C55.4 113.919 58.2183 106.261 63.5669 100.675L59.2331 96.5253ZM49.4 124C49.4 135.255 52.5824 144.581 59.2114 151.652L63.5886 147.548C58.2177 141.819 55.4 134.078 55.4 124H49.4ZM59.2331 151.675C65.8788 158.616 74.6381 162 85.2 162V156C76.0286 156 68.9212 153.118 63.5669 147.525L59.2331 151.675ZM85.2 162C98.0267 162 109.035 155.963 118.151 144.464L113.449 140.736C105.231 151.103 95.84 156 85.2 156V162ZM113.802 144.838L143.602 171.438L147.598 166.962L117.798 140.362L113.802 144.838ZM143.217 167.378C136.594 176.039 128.193 182.663 117.969 187.264L120.431 192.736C131.54 187.737 140.74 180.494 147.983 171.022L143.217 167.378ZM117.969 187.264C107.747 191.864 96.0441 194.2 82.8 194.2V200.2C96.7559 200.2 109.319 197.736 120.431 192.736L117.969 187.264Z" fill="#E22163"/>
</svg>
