<svg width="148" height="244" viewBox="0 0 148 244" fill="none" xmlns="http://www.w3.org/2000/svg">
<path d="M116.6 179.4L114.445 177.313L114.444 177.314L116.6 179.4ZM82.2 195.8L81.6726 192.847L79.2 193.288V195.8H82.2ZM82.2 218V221H85.2V218H82.2ZM54 218H51V221H54V218ZM54 196.8H57V193.956L54.1598 193.804L54 196.8ZM25.2 192.2L24.3927 195.089L24.4036 195.092L25.2 192.2ZM2.6 182.8L-0.14406 181.588L-1.1971 183.971L1.01509 185.347L2.6 182.8ZM17.8 148.4L19.3052 145.805L16.4091 144.125L15.0559 147.188L17.8 148.4ZM40.2 157.8L39.3636 160.681L39.3851 160.687L39.4067 160.693L40.2 157.8ZM78 159.4L79.1818 162.157L79.2363 162.134L79.2898 162.109L78 159.4ZM76.6 147L75.4681 149.778L75.4855 149.785L75.503 149.792L76.6 147ZM58.6 142.2L57.9838 145.136L57.9937 145.138L58.6 142.2ZM31.6 135L30.5581 137.813L30.5811 137.822L30.6043 137.83L31.6 135ZM12.8 122.2L10.5578 124.193L10.5689 124.206L10.5802 124.218L12.8 122.2ZM17.4 67.8L15.2955 65.662L15.287 65.6703L15.2787 65.6787L17.4 67.8ZM54 51.8L54.4243 54.7698L57 54.4019V51.8H54ZM54 30V27H51V30H54ZM82.2 30H85.2V27H82.2V30ZM82.2 51.4H79.2V54.1376L81.9261 54.3875L82.2 51.4ZM122.8 63L125.571 64.1504L126.589 61.6979L124.278 60.3895L122.8 63ZM108.6 97.2L107.248 99.8781L110.132 101.334L111.371 98.3504L108.6 97.2ZM56.8 102L55.6681 104.778L55.7128 104.796L55.7581 104.813L56.8 102ZM74.6 106.4L74.0299 109.345L74.0385 109.347L74.0471 109.349L74.6 106.4ZM101.6 113.4L100.575 116.219L100.598 116.228L100.62 116.236L101.6 113.4ZM120.6 126L118.38 128.018L118.393 128.032L118.405 128.045L120.6 126ZM125.8 150C125.8 160.384 122.063 169.445 114.445 177.313L118.755 181.487C127.404 172.555 131.8 162.016 131.8 150H125.8ZM114.444 177.314C107.003 185.003 96.1818 190.256 81.6726 192.847L82.7274 198.753C98.0849 196.011 110.197 190.331 118.756 181.486L114.444 177.314ZM79.2 195.8V218H85.2V195.8H79.2ZM82.2 215H54V221H82.2V215ZM57 218V196.8H51V218H57ZM54.1598 193.804C44.3645 193.282 34.9786 191.781 25.9964 189.308L24.4036 195.092C33.8214 197.686 43.6355 199.251 53.8402 199.796L54.1598 193.804ZM26.0073 189.311C17.1299 186.83 9.87835 183.795 4.18491 180.253L1.01509 185.347C7.32165 189.271 15.1368 192.503 24.3927 195.089L26.0073 189.311ZM5.34406 184.012L20.5441 149.612L15.0559 147.188L-0.14406 181.588L5.34406 184.012ZM16.2948 150.995C23.1949 154.997 30.89 158.221 39.3636 160.681L41.0364 154.919C32.9766 152.579 25.7385 149.536 19.3052 145.805L16.2948 150.995ZM39.4067 160.693C47.8994 163.022 56.1003 164.2 64 164.2V158.2C56.6997 158.2 49.0339 157.111 40.9933 154.907L39.4067 160.693ZM64 164.2C70.5801 164.2 75.7795 163.616 79.1818 162.157L76.8182 156.643C74.6205 157.584 70.4866 158.2 64 158.2V164.2ZM79.2898 162.109C81.0115 161.289 82.5101 160.187 83.5798 158.71C84.6739 157.199 85.2 155.457 85.2 153.6H79.2C79.2 154.276 79.0261 154.768 78.7202 155.19C78.3899 155.647 77.7885 156.178 76.7102 156.691L79.2898 162.109ZM85.2 153.6C85.2 151.435 84.4892 149.461 83.0875 147.809C81.7332 146.213 79.8543 145.055 77.697 144.208L75.503 149.792C77.079 150.411 78.0002 151.087 78.5125 151.691C78.9775 152.239 79.2 152.831 79.2 153.6H85.2ZM77.7319 144.222C73.8575 142.643 67.6244 140.999 59.2063 139.262L57.9937 145.138C66.3756 146.868 72.1425 148.423 75.4681 149.778L77.7319 144.222ZM59.2162 139.264C48.4935 137.014 39.6305 134.645 32.5957 132.17L30.6043 137.83C37.9696 140.421 47.1065 142.853 57.9838 145.136L59.2162 139.264ZM32.6419 132.187C25.9076 129.693 20.0408 125.705 15.0198 120.182L10.5802 124.218C16.2258 130.428 22.8924 134.974 30.5581 137.813L32.6419 132.187ZM15.0422 120.207C10.315 114.889 7.8 107.598 7.8 98H1.8C1.8 108.669 4.61836 117.511 10.5578 124.193L15.0422 120.207ZM7.8 98C7.8 87.0734 11.6761 77.7666 19.5213 69.9213L15.2787 65.6787C6.32394 74.6334 1.8 85.46 1.8 98H7.8ZM19.5046 69.938C27.4486 62.118 38.9795 56.9762 54.4243 54.7698L53.5757 48.8301C37.2871 51.1571 24.418 56.682 15.2955 65.662L19.5046 69.938ZM57 51.8V30H51V51.8H57ZM54 33H82.2V27H54V33ZM79.2 30V51.4H85.2V30H79.2ZM81.9261 54.3875C97.6104 55.8252 110.709 59.601 121.322 65.6105L124.278 60.3895C112.757 53.8657 98.7896 49.9081 82.4739 48.4125L81.9261 54.3875ZM120.029 61.8496L105.829 96.0496L111.371 98.3504L125.571 64.1504L120.029 61.8496ZM109.952 94.5219C95.9035 87.4295 82.4405 83.8 69.6 83.8V89.8C81.2929 89.8 93.8298 93.1039 107.248 99.8781L109.952 94.5219ZM69.6 83.8C63.3875 83.8 58.2915 84.5355 54.6441 86.2991C52.7796 87.2006 51.1884 88.4215 50.0676 90.0472C48.9303 91.6968 48.4 93.5873 48.4 95.6H54.4C54.4 94.6793 54.628 94.0032 55.0074 93.4528C55.4033 92.8785 56.087 92.266 57.2559 91.7009C59.6751 90.5311 63.6792 89.8 69.6 89.8V83.8ZM48.4 95.6C48.4 97.7057 49.0989 99.6249 50.4571 101.235C51.7687 102.789 53.5853 103.93 55.6681 104.778L57.9319 99.2217C56.4147 98.6036 55.5313 97.9443 55.0429 97.3654C54.6011 96.8418 54.4 96.2943 54.4 95.6H48.4ZM55.7581 104.813C59.6052 106.238 65.7458 107.742 74.0299 109.345L75.1701 103.455C66.9209 101.858 61.1948 100.429 57.8419 99.1868L55.7581 104.813ZM74.0471 109.349C84.6102 111.329 93.4415 113.625 100.575 116.219L102.625 110.581C95.0919 107.841 85.9231 105.471 75.1529 103.451L74.0471 109.349ZM100.62 116.236C107.468 118.601 113.377 122.515 118.38 128.018L122.82 123.982C117.156 117.752 110.399 113.266 102.58 110.564L100.62 116.236ZM118.405 128.045C123.228 133.221 125.8 140.417 125.8 150H131.8C131.8 139.316 128.905 130.512 122.795 123.955L118.405 128.045Z" fill="#E22163"/>
</svg>
