<svg width="181" height="244" viewBox="0 0 181 244" fill="none" xmlns="http://www.w3.org/2000/svg">
<path d="M13.5999 119.6L11.4786 121.721H11.4786L13.5999 119.6ZM7.99994 70L10.6336 71.4366H10.6336L7.99994 70ZM21.1999 56.6L19.785 53.9546L19.772 53.9616L19.759 53.9687L21.1999 56.6ZM59.3999 56.6L57.959 59.2313L57.972 59.2384L57.985 59.2453L59.3999 56.6ZM72.7999 70L70.1663 71.4366L72.7999 70ZM67.1999 119.6L69.3213 121.721L67.1999 119.6ZM122.6 54V51H121.016L120.122 52.3082L122.6 54ZM156.4 54L158.877 55.6918L162.081 51H156.4V54ZM60.7999 194V197H62.3841L63.2774 195.692L60.7999 194ZM26.9999 194L24.5225 192.308L21.3186 197H26.9999V194ZM46.5999 104.4L44.0491 102.821L44.0382 102.839L44.0275 102.857L46.5999 104.4ZM46.5999 77.8L43.9952 79.2884L44.0378 79.363L44.0846 79.435L46.5999 77.8ZM33.9999 77.8L31.4491 76.2209L31.4382 76.2386L31.4275 76.2565L33.9999 77.8ZM33.9999 104.4L31.3952 105.888L31.4378 105.963L31.4846 106.035L33.9999 104.4ZM116.2 185.6L118.321 183.479L116.2 185.6ZM110.6 136L107.966 134.563L110.6 136ZM123.8 122.6L122.385 119.955L122.372 119.962L122.359 119.969L123.8 122.6ZM162 122.6L160.559 125.231L160.572 125.238L160.585 125.245L162 122.6ZM175.4 136L178.034 134.563L175.4 136ZM169.8 185.6L167.679 183.479L169.8 185.6ZM149.2 170.4L146.649 168.821L146.638 168.839L146.627 168.857L149.2 170.4ZM149.2 143.8L146.595 145.288L146.638 145.363L146.685 145.435L149.2 143.8ZM136.6 143.8L134.049 142.221L134.038 142.239L134.027 142.257L136.6 143.8ZM136.6 170.4L133.995 171.888L134.038 171.963L134.085 172.035L136.6 170.4ZM40.3999 127C30.1621 127 22.0249 123.782 15.7213 117.479L11.4786 121.721C19.0417 129.284 28.7711 133 40.3999 133V127ZM15.7213 117.479C9.47785 111.235 6.19994 102.538 6.19994 91H0.199939C0.199939 103.729 3.85537 114.098 11.4786 121.721L15.7213 117.479ZM6.19994 91C6.19994 83.2605 7.72091 76.7765 10.6336 71.4366L5.36625 68.5634C1.87897 74.9568 0.199939 82.4728 0.199939 91H6.19994ZM10.6336 71.4366C13.5721 66.0493 17.5688 62.0089 22.6409 59.2313L19.759 53.9687C13.6311 57.3245 8.82778 62.2173 5.36625 68.5634L10.6336 71.4366ZM22.6149 59.2453C27.8758 56.4314 33.783 55 40.3999 55V49C32.8835 49 25.9907 50.6353 19.785 53.9546L22.6149 59.2453ZM40.3999 55C47.0179 55 52.8465 56.4316 57.959 59.2313L60.8409 53.9687C54.7534 50.6351 47.9153 49 40.3999 49V55ZM57.985 59.2453C63.1881 62.0284 67.2379 66.0678 70.1663 71.4366L75.4336 68.5634C71.962 62.1988 67.0785 57.3049 60.8149 53.9546L57.985 59.2453ZM70.1663 71.4366C73.079 76.7765 74.5999 83.2605 74.5999 91H80.5999C80.5999 82.4728 78.9209 74.9568 75.4336 68.5634L70.1663 71.4366ZM74.5999 91C74.5999 102.538 71.322 111.235 65.0786 117.479L69.3213 121.721C76.9445 114.098 80.5999 103.729 80.5999 91H74.5999ZM65.0786 117.479C58.775 123.782 50.6378 127 40.3999 127V133C52.0287 133 61.7582 129.284 69.3213 121.721L65.0786 117.479ZM122.6 57H156.4V51H122.6V57ZM153.922 52.3082L58.3225 192.308L63.2774 195.692L158.877 55.6918L153.922 52.3082ZM60.7999 191H26.9999V197H60.7999V191ZM29.4774 195.692L125.077 55.6918L120.122 52.3082L24.5225 192.308L29.4774 195.692ZM40.3999 111.4C44.2389 111.4 47.1738 109.275 49.1724 105.943L44.0275 102.857C42.8261 104.859 41.6276 105.4 40.3999 105.4V111.4ZM49.1507 105.979C51.3365 102.448 52.1999 97.2826 52.1999 91H46.1999C46.1999 96.984 45.33 100.752 44.0491 102.821L49.1507 105.979ZM52.1999 91C52.1999 84.7384 51.344 79.5939 49.1153 76.165L44.0846 79.435C45.3225 81.3395 46.1999 84.9949 46.1999 91H52.1999ZM49.2047 76.3116C47.2396 72.8728 44.3121 70.6 40.3999 70.6V76.6C41.5544 76.6 42.7602 77.1272 43.9952 79.2884L49.2047 76.3116ZM40.3999 70.6C36.5175 70.6 33.5434 72.838 31.4491 76.2209L36.5507 79.3791C37.9232 77.162 39.2157 76.6 40.3999 76.6V70.6ZM31.4275 76.2565C29.3865 79.6581 28.5999 84.7586 28.5999 91H34.5999C34.5999 84.9747 35.4134 81.2752 36.5724 79.3435L31.4275 76.2565ZM28.5999 91C28.5999 97.2622 29.3935 102.385 31.3952 105.888L36.6047 102.912C35.4064 100.815 34.5999 97.0045 34.5999 91H28.5999ZM31.4846 106.035C33.6106 109.306 36.5878 111.4 40.3999 111.4V105.4C39.1454 105.4 37.856 104.828 36.5153 102.765L31.4846 106.035ZM143 193C132.762 193 124.625 189.782 118.321 183.479L114.079 187.721C121.642 195.284 131.371 199 143 199V193ZM118.321 183.479C112.078 177.235 108.8 168.538 108.8 157H102.8C102.8 169.729 106.455 180.098 114.079 187.721L118.321 183.479ZM108.8 157C108.8 149.261 110.321 142.777 113.234 137.437L107.966 134.563C104.479 140.957 102.8 148.473 102.8 157H108.8ZM113.234 137.437C116.172 132.049 120.169 128.009 125.241 125.231L122.359 119.969C116.231 123.324 111.428 128.217 107.966 134.563L113.234 137.437ZM125.215 125.245C130.476 122.431 136.383 121 143 121V115C135.484 115 128.591 116.635 122.385 119.955L125.215 125.245ZM143 121C149.618 121 155.447 122.432 160.559 125.231L163.441 119.969C157.353 116.635 150.515 115 143 115V121ZM160.585 125.245C165.788 128.028 169.838 132.068 172.766 137.437L178.034 134.563C174.562 128.199 169.678 123.305 163.415 119.955L160.585 125.245ZM172.766 137.437C175.679 142.777 177.2 149.261 177.2 157H183.2C183.2 148.473 181.521 140.957 178.034 134.563L172.766 137.437ZM177.2 157C177.2 168.538 173.922 177.235 167.679 183.479L171.921 187.721C179.545 180.098 183.2 169.729 183.2 157H177.2ZM167.679 183.479C161.375 189.782 153.238 193 143 193V199C154.629 199 164.358 195.284 171.921 187.721L167.679 183.479ZM143 177.4C146.839 177.4 149.774 175.275 151.772 171.943L146.627 168.857C145.426 170.859 144.228 171.4 143 171.4V177.4ZM151.751 171.979C153.937 168.448 154.8 163.283 154.8 157H148.8C148.8 162.984 147.93 166.752 146.649 168.821L151.751 171.979ZM154.8 157C154.8 150.738 153.944 145.594 151.715 142.165L146.685 145.435C147.923 147.339 148.8 150.995 148.8 157H154.8ZM151.805 142.312C149.84 138.873 146.912 136.6 143 136.6V142.6C144.154 142.6 145.36 143.127 146.595 145.288L151.805 142.312ZM143 136.6C139.118 136.6 136.143 138.838 134.049 142.221L139.151 145.379C140.523 143.162 141.816 142.6 143 142.6V136.6ZM134.027 142.257C131.986 145.658 131.2 150.759 131.2 157H137.2C137.2 150.975 138.013 147.275 139.172 145.343L134.027 142.257ZM131.2 157C131.2 163.262 131.993 168.385 133.995 171.888L139.205 168.912C138.006 166.815 137.2 163.004 137.2 157H131.2ZM134.085 172.035C136.211 175.306 139.188 177.4 143 177.4V171.4C141.745 171.4 140.456 170.828 139.115 168.765L134.085 172.035Z" fill="#E22163"/>
</svg>
