<svg width="193" height="33" viewBox="0 0 193 33" fill="none" xmlns="http://www.w3.org/2000/svg">
<path d="M17.116 21.872C17.116 21.404 16.9 19.784 15.892 18.488C15.64 18.128 15.244 17.84 14.812 17.588C14.236 17.264 13.516 16.976 12.652 16.616C13.408 16.436 14.74 15.428 15.244 14.276C15.424 13.88 15.604 13.196 15.676 12.728C15.748 12.332 15.82 11.9 15.82 11.468C15.82 11.216 15.748 10.748 15.712 10.532C15.604 10.028 15.424 9.56 15.136 9.128C14.956 8.876 14.776 8.624 14.524 8.408C14.308 8.192 14.056 7.94 13.804 7.76C13.552 7.58 13.3 7.472 13.048 7.328C12.544 7.04 12.004 6.752 11.428 6.536C10.888 6.392 10.348 6.356 9.88 6.248C8.908 6.104 8.008 5.996 7.036 5.96H6.496C6.064 5.96 5.668 5.96 5.272 5.996L3.58 6.104C4.192 6.392 5.308 6.212 6.172 6.248C5.92 6.392 5.92 6.572 5.452 6.68H4.84C4.84 6.608 4.804 6.572 4.732 6.572C4.66 6.572 4.624 6.608 4.588 6.68C4.336 6.68 4.084 6.716 3.832 6.752C3.652 6.824 3.58 6.86 3.58 6.896C3.58 7.004 3.94 7.04 4.084 7.148H4.12C4.156 7.184 4.156 7.184 4.156 7.22L3.508 7.076C3.184 7.04 2.824 6.932 2.5 6.824C2.248 6.752 1.996 6.716 1.78 6.716C1.6 6.716 1.492 6.716 1.42 6.752C0.952 9.956 0.664 13.088 0.556 16.148C0.52 17.48 0.52 18.884 0.52 20.216V21.872C0.52 24.176 0.52 26.3 0.556 28.46C0.592 28.424 0.664 28.424 0.7 28.424C0.844 28.424 0.952 28.496 1.06 28.496C1.168 28.496 1.24 28.46 1.312 28.388C1.492 28.316 1.492 28.28 1.636 28.172L1.744 28.208C1.744 28.316 1.816 28.424 1.852 28.532C1.852 28.64 2.212 28.928 2.32 29.216C2.356 29.324 2.392 29.396 2.392 29.468C2.392 29.504 2.356 29.54 2.32 29.648C2.212 29.756 2.032 29.792 1.78 29.792H8.908C10.744 29.684 12.364 29.108 13.696 28.244C14.092 27.992 14.416 27.596 14.74 27.308C15.136 26.948 15.496 26.66 15.784 26.264C16.072 25.868 16.216 25.472 16.432 25.04C16.9 24.068 17.116 22.988 17.116 21.872ZM5.452 9.632H6.424C8.116 9.668 9.34 9.956 10.132 10.532C10.528 10.784 11.068 11.108 11.068 11.54C11.068 11.936 11.5 12.692 10.888 13.808C10.744 14.132 10.492 14.384 10.204 14.6C9.268 15.248 7.648 15.464 5.236 15.284C5.272 13.952 5.308 11.144 5.416 9.884C5.452 9.848 5.452 9.74 5.452 9.632ZM12.58 21.944C12.58 22.556 12.4 23.132 12.004 23.708C11.896 23.888 11.392 24.392 11.248 24.572C10.24 25.688 8.944 26.12 6.712 26.12H4.984L4.948 24.176V23.78C4.912 23.456 4.876 23.132 4.876 22.808C4.876 21.908 4.984 20.972 4.948 20.072C4.912 18.668 5.056 18.056 5.2 16.328C5.344 16.472 5.416 16.616 5.452 16.724C5.452 16.904 5.236 17.084 5.2 17.264C5.2 17.444 5.272 17.624 5.416 17.768C5.416 17.804 5.74 18.056 5.992 18.38C6.28 18.668 5.812 18.596 5.812 19.028C6.388 18.848 7.036 18.704 7.612 18.452C7.612 18.56 7.684 18.668 7.72 18.776C8.764 18.776 9.484 18.956 10.24 19.1C10.852 19.208 11.464 19.712 11.824 19.964C12.472 20.504 12.58 21.044 12.58 21.944ZM33.6018 26.588C33.1698 25.616 32.8818 24.68 32.4858 23.78C32.3778 23.564 32.3058 23.312 32.1978 23.06C32.4138 22.988 32.6298 22.88 32.8458 22.772C34.4298 21.98 36.0498 19.532 36.2298 17.408C35.6898 15.608 35.1858 14.456 34.0338 13.448C31.5498 11.18 29.2098 10.964 25.4298 10.964C24.4218 10.964 23.2698 11 23.2698 11.036C23.4138 11.468 25.9698 11.36 25.9698 11.54C25.9698 11.72 25.5378 11.72 25.2498 11.72H24.9978C24.8178 11.72 24.5658 11.72 24.3857 11.684C23.9538 11.684 23.4498 11.648 23.1978 11.756C22.9818 11.792 22.8738 11.828 22.8738 11.864C22.8738 11.972 23.3418 12.008 23.5938 12.152C23.7738 12.26 23.8457 12.368 23.8457 12.476V12.764C23.8457 12.8 23.7378 12.836 23.4858 12.836H23.3058C22.8378 12.836 22.3338 12.656 21.7938 12.656C21.6138 12.656 21.4338 12.692 21.2538 12.764V29.468C21.2538 29.432 21.2898 29.432 21.3618 29.432L21.6858 29.468L21.9378 29.396C22.1898 29.216 22.4058 28.928 22.6938 28.928L22.8738 28.964C23.0178 29 23.2338 29.288 23.3778 29.396C23.4858 29.432 23.5578 29.468 23.6298 29.468C23.7378 29.468 23.8457 29.432 24.0258 29.396C24.2058 29.288 24.7098 29.036 25.1058 29.036C25.3578 29.036 25.2858 29.324 25.5018 29.432C25.5018 28.892 25.4658 28.352 25.3578 27.776V24.428C26.4378 24.428 27.3378 24.392 28.0578 24.32C28.2378 24.896 28.4538 25.436 28.7058 25.976C29.1738 27.092 29.6418 28.064 30.2178 29.18C30.9018 30.44 31.5138 31.52 32.1978 32.672C32.3778 32.528 32.5578 32.528 32.8098 32.348C33.0618 32.096 33.1698 31.844 33.5658 31.736L33.6738 31.7C33.7818 31.7 33.9618 31.772 34.1058 31.772C34.3578 31.736 34.5018 31.592 34.6458 31.484C34.8258 31.304 35.4018 30.764 35.7978 30.764C35.9058 30.764 35.9778 30.8 36.0498 30.908L34.9338 29.18C34.3938 28.352 33.9978 27.416 33.6018 26.588ZM25.4658 20.504L25.5378 15.392L25.4658 14.708C25.9338 14.744 26.4378 14.708 26.9778 14.816C29.9298 15.032 29.3898 15.032 30.9738 15.752C32.4498 16.58 32.0898 20.18 28.1658 20.324C27.4458 20.36 26.6898 20.504 25.9338 20.504H25.4658ZM40.2207 11.216V11.252C40.2567 14.42 39.8247 20.216 39.7167 22.448C39.6087 24.752 39.5007 27.056 39.4647 29.468C39.7527 29.324 40.0407 29.54 40.2927 29.36C40.6887 29.108 41.0127 28.82 41.4087 28.928C41.6607 28.964 41.8047 29.324 41.9847 29.468C42.2367 29.576 42.4887 29.504 42.7407 29.468C42.8487 29.468 43.9287 28.748 44.4327 29.612C44.4687 28.352 44.4327 27.236 44.4327 25.976C44.4327 24.212 44.5407 22.484 44.7207 20.756C44.7207 19.208 45.0807 16.184 45.0807 14.096C45.0807 12.908 44.9367 11.828 44.9367 10.712C44.5407 11.288 44.7567 12.188 44.7207 13.304C44.4687 13.052 44.2527 13.016 44.1087 12.584C44.0007 12.116 44.1807 11.324 44.0367 10.856C43.8567 10.388 42.8847 11.324 42.5967 11.324C41.8407 11.324 40.9767 10.892 40.2207 11.216ZM63.9219 28.316V26.696L64.3899 26.372C64.2459 26.372 64.2099 26.264 64.1379 26.12C64.1379 26.048 64.1019 26.012 63.9579 25.904C63.9219 25.904 63.9219 25.796 63.9219 25.724C63.9579 24.824 63.9939 24.464 63.9939 23.672V21.26L63.8859 19.784C63.7779 20.216 63.7059 20.468 63.7059 20.936C63.5259 20.792 63.3459 20.792 63.2379 20.612C63.2379 20.576 63.2019 20.54 63.2019 20.468L63.2379 20.108C63.2379 20.036 63.2019 19.964 63.1659 19.892C63.1299 19.82 63.0939 19.784 63.0579 19.784C62.9859 19.784 62.9859 19.928 62.8779 20L62.6979 20.036V19.676L62.6619 18.344C62.6619 18.164 62.6619 17.984 62.7339 17.624C62.5179 17.984 62.2659 18.056 61.9419 18.092C61.8339 18.128 61.6899 18.128 61.5459 18.128L60.1779 18.092L58.7019 18.128H57.2979C57.0819 18.164 56.8659 18.308 56.6139 18.308C56.8299 18.38 56.9739 18.416 57.1539 18.416C57.0819 18.56 57.1179 18.74 57.0459 18.848H56.8299C56.7579 18.848 56.7219 18.884 56.6859 18.92L56.6139 18.992C56.6139 19.1 56.7219 19.1 56.7579 19.172C56.7939 19.28 56.7939 19.352 56.7939 19.496V21.764C56.7579 21.836 56.7579 21.944 56.7579 22.052C56.7579 22.16 56.7579 22.232 56.7939 22.304H59.5299V24.176L59.3499 24.212C58.7379 24.572 58.1259 24.644 57.4419 24.824C56.8659 25.04 56.4699 25.076 56.1099 25.112H55.7139C55.3899 25.112 55.0659 25.076 54.7419 25.004C54.4539 24.932 54.0939 24.716 53.8779 24.536C53.0139 23.6 52.7619 22.664 52.7619 20.828C52.7619 20.18 52.7619 19.676 52.8699 19.136C52.9779 18.596 53.0499 18.02 53.2299 17.516C53.3379 17.012 53.5179 16.616 53.6979 16.256C54.0219 15.32 55.5339 14.708 56.6499 15.032C57.0819 15.212 57.4419 15.32 57.9099 15.5C58.7739 15.824 59.6019 16.256 60.3939 16.976C60.6819 16.328 59.3859 16.004 58.8459 15.608L57.8379 15.176C57.5139 15.176 57.0459 14.78 56.7219 14.672C56.8659 14.636 56.9379 14.564 57.1899 14.528C57.2259 14.528 57.2619 14.492 57.3699 14.492C57.5139 14.492 57.6939 14.528 57.9099 14.6C58.3059 14.708 58.7739 14.924 59.2419 15.212C59.7099 15.464 60.1779 15.752 60.5739 15.86C60.7539 15.932 60.8619 15.968 60.9339 15.968C60.9339 15.896 60.9339 15.86 60.8979 15.824L60.3219 15.284C60.2139 15.176 60.1779 15.032 60.1779 14.888C60.1779 14.78 60.1779 14.708 60.2139 14.672L60.5379 14.384C60.6819 14.096 61.0419 13.844 61.3299 13.592C61.5819 13.412 61.7979 13.16 61.7979 12.836L61.6899 12.548C60.9699 12.116 60.2139 11.756 59.5299 11.432C58.3419 10.964 57.4419 10.856 56.0739 10.856C55.6779 10.856 54.7059 10.892 54.2739 10.964C53.8419 11.036 53.4459 11.18 53.0859 11.324C52.6539 11.54 52.1139 11.72 51.7539 12.044C51.3939 12.26 51.1059 12.584 50.8539 12.908C50.5659 13.232 50.0979 13.52 49.9539 13.88C49.7019 14.204 49.5579 14.528 49.4499 14.852C49.1259 15.572 48.9099 16.256 48.8019 16.904C48.5859 17.588 48.5139 18.2 48.4779 18.848V20.36C48.3699 20.648 48.3339 20.936 48.3339 21.26C48.4419 22.124 48.4779 22.952 48.6579 23.816C48.7659 24.248 48.8739 24.68 49.0179 25.148L49.6659 26.444C50.0259 26.84 50.2419 27.236 51.0699 27.812C51.4659 28.064 51.8619 28.316 52.3299 28.568C52.9059 28.892 53.4459 29 53.9859 29.216C54.5619 29.324 55.1019 29.396 55.6779 29.396C56.2539 29.396 56.7579 29.324 57.2259 29.252C57.7299 29.144 58.2699 29 58.7379 28.892C59.0619 28.748 59.4579 28.64 59.8179 28.532V29.648L60.4299 29.612C61.2219 29.504 61.4019 29.432 61.6539 29.432H61.8339C61.9419 29.432 62.0139 29.504 62.2299 29.612H62.6619C62.8059 29.576 63.2739 29.468 63.6339 29.468C63.8139 29.468 63.7779 29.648 63.9579 29.648C63.9579 29.18 63.9579 28.712 63.9219 28.316ZM81.5653 14.312C81.4213 14.06 81.2053 14.06 81.0973 13.628V11.756C81.0253 11.576 80.9893 11.504 80.9533 11.504C80.8453 11.504 80.7733 11.864 80.6293 12.044C80.5213 12.188 80.4133 12.26 80.2693 12.26L79.8013 12.188C79.3333 12.188 78.7573 11.936 78.2173 11.936C78.0373 11.936 77.8573 11.972 77.6773 12.044C77.5693 15.104 77.3173 15.356 77.0293 18.38L73.2853 18.344L71.5933 18.308V16.976C71.5933 16.256 71.5933 15.392 71.6293 14.492C71.6653 14.168 71.6653 13.88 71.6653 13.556V11C71.3053 11.468 71.4133 12.584 71.3053 13.628C71.1613 13.448 70.9093 13.376 70.8013 12.908V11.612L70.8373 11.36L70.8013 11.18C70.7653 11 70.7293 10.928 70.6933 10.928C70.5853 10.928 70.5133 11.288 70.4053 11.468C70.2973 11.576 70.1893 11.648 70.0453 11.648L67.9933 11.324C67.8133 11.324 67.6333 11.36 67.4533 11.432C67.3453 13.88 67.2733 20.684 67.2733 25.22C67.2733 27.02 67.2733 28.46 67.3093 29.144C67.4173 29.108 67.4893 29.072 67.5253 29.072L67.8493 29.108C67.9213 29.108 67.9573 29.108 67.9933 29.072C68.2813 28.82 68.6413 28.532 68.9293 28.532C69.2173 28.64 69.3253 28.928 69.5053 29.036C69.6133 29.072 69.6853 29.108 69.7573 29.108C69.9013 29.108 70.0093 29.072 70.1533 29.036C70.2613 29 70.8373 28.64 71.2693 28.64C71.5213 28.64 71.4853 29.036 71.7013 29.072L71.4853 22.052H76.5973L76.4533 24.608C76.3093 27.092 76.1653 27.884 76.1653 30.44C76.2013 30.404 76.3093 30.368 76.4173 30.368L76.7413 30.404C76.7773 30.404 76.8133 30.404 76.8493 30.368C77.1733 30.116 77.4613 29.792 77.7853 29.792L77.8933 29.828C78.0733 29.936 78.1453 30.224 78.3973 30.368C78.5053 30.404 78.5773 30.44 78.6133 30.44C78.6853 30.44 78.8293 30.404 79.0093 30.368C79.1173 30.368 79.4413 30.116 79.8373 29.972C79.9453 29.972 79.9813 29.936 80.0893 29.936C80.4133 29.936 80.3413 30.332 80.5573 30.476V28.676C80.5573 26.804 81.7453 17.192 81.8893 15.212C81.8893 15.104 81.9253 14.744 81.9253 14.348C81.9253 13.592 81.8893 13.196 81.7813 13.196C81.6733 13.196 81.6013 13.556 81.5653 14.312ZM94.2137 15.5C98.6057 15.068 98.6057 14.96 98.6057 14.852V14.6C98.6057 14.492 98.6057 14.42 98.5697 14.384C98.4257 14.06 98.1737 13.808 98.1737 13.52V13.34C98.1737 13.16 98.4977 13.016 98.5337 12.836C98.5697 12.8 98.5697 12.692 98.5697 12.548C98.5697 12.368 98.5697 12.26 98.5337 12.188C98.5337 12.152 98.3537 11.756 98.2457 11.36C98.2097 11.288 98.1737 11.18 98.1737 11.036C98.1737 10.784 98.4617 10.892 98.5697 10.64C97.4537 10.676 94.4657 10.64 92.9897 10.784C91.5137 10.82 90.1817 10.82 88.7777 10.82L85.8977 10.892C85.5737 10.892 85.2497 10.712 84.9257 10.856L85.0337 10.892C85.6097 11.036 86.0777 11.072 86.7977 11.18C86.6177 11.36 86.5817 11.576 86.2577 11.684C86.1857 11.72 86.0777 11.72 85.9697 11.72C85.7897 11.72 85.6817 11.72 85.6097 11.684L85.2857 11.648C85.1777 11.648 85.1057 11.684 84.9977 11.684C84.8897 11.72 84.8177 11.792 84.8177 11.828C84.8177 11.936 85.0337 12.008 85.1777 12.116C85.2497 12.224 85.2857 12.368 85.2857 12.476C85.2857 12.584 85.2497 12.728 85.2137 12.98C85.1777 13.376 85.0697 13.664 84.9617 14.06V14.204L84.9257 14.384C84.8897 14.564 84.8537 14.708 84.8537 14.816L84.9257 15.104L85.2497 15.14C87.6977 15.32 88.9217 15.428 88.4177 15.428H89.7497C89.7857 21.692 89.8577 27.524 89.9657 29.648C90.0017 29.612 90.1097 29.612 90.2177 29.612H90.4337C90.5417 29.612 90.6497 29.576 90.7217 29.54C91.0097 29.36 91.2977 29.072 91.6217 29.072C91.9097 29.108 92.0897 29.396 92.2337 29.504C92.2697 29.54 92.3777 29.54 92.4857 29.54C92.6657 29.54 92.7737 29.504 92.9177 29.468C93.0257 29.432 93.3137 29.036 93.7097 29.036C93.9977 29.036 94.0697 29.396 94.4297 29.468C94.3937 28.352 94.3577 27.38 94.2497 26.372V26.192C94.1417 25.364 94.1057 24.608 94.1057 23.78V20.252C94.2137 19.964 94.1777 19.748 94.1777 19.496V16.688C94.1777 16.292 94.1777 15.896 94.2137 15.5ZM111.236 25.076C108.932 24.752 106.376 24.464 105.548 24.464L105.584 23.312L105.62 22.664C106.232 22.628 106.88 22.592 107.456 22.484L111.344 22.16L111.308 21.44C111.2 21.152 111.056 20.864 111.056 20.54C111.056 20.216 111.2 20.144 111.236 19.892V19.712C111.236 19.568 111.236 19.388 111.2 19.244C111.2 19.136 110.984 18.416 110.984 17.984C110.984 17.804 111.02 17.696 111.092 17.696C110.66 17.732 110.192 17.768 109.652 17.876L106.412 18.02L105.908 18.056L106.052 15.896C106.376 15.896 106.7 15.932 107.024 15.968C108.428 15.968 110.336 16.22 111.236 16.328L112.712 16.4C112.64 16.076 112.064 16.148 111.632 16.04C111.74 15.86 111.74 15.608 111.992 15.572L112.532 15.608C112.64 15.608 112.712 15.608 112.748 15.572C112.82 15.536 112.856 15.5 112.856 15.464C112.856 15.356 112.712 15.284 112.676 15.176C112.64 15.104 112.64 14.996 112.64 14.888C112.64 14.708 112.676 14.528 112.712 14.276C112.82 13.952 112.856 13.628 112.964 13.232C113.036 12.944 113.072 12.656 113.072 12.368V12.188C112.244 12.008 111.488 11.9 110.66 11.756C109.652 11.612 108.356 11.504 107.168 11.504H105.116C105.116 11.18 105.116 10.82 105.008 10.568C104.972 10.424 104.9 10.352 104.864 10.352C104.756 10.352 104.756 10.712 104.612 10.892C104.504 11.036 104.396 11.108 104.252 11.108L103.856 11.072H103.712C103.424 11.072 103.172 11 102.848 10.964L102.524 10.928C102.272 10.928 102.056 10.964 101.876 11.072C101.912 12.044 101.948 12.908 101.948 13.88V15.86C101.948 17.408 101.876 16.616 101.804 18.2L101.48 25.58C101.48 26.876 101.516 28.172 101.552 29.468C101.588 29.432 101.66 29.432 101.732 29.432L102.02 29.468C102.056 29.468 102.128 29.432 102.236 29.396C102.524 29.144 102.74 28.856 103.064 28.856L103.676 29.36C103.784 29.396 103.856 29.432 103.892 29.432C104 29.432 104.144 29.36 104.252 29.324C104.36 29.324 104.648 29.108 105.044 29L105.332 28.928L105.692 28.856H106.016C106.556 28.856 108.644 29.18 111.488 29.684C112.1 29.864 112.64 29.864 113.216 30.008C113.252 29.684 112.496 29.612 111.956 29.432C112.136 29.288 112.208 29.108 112.46 29C112.712 29 112.928 29.18 113.18 29.18C113.252 29.18 113.288 29.18 113.324 29.144C113.432 29.108 113.468 29.072 113.468 29.036C113.468 28.928 113.36 28.856 113.252 28.712L113.216 28.532C113.216 28.28 113.324 28.064 113.36 27.884C113.468 27.488 113.612 27.2 113.756 26.804C113.864 26.516 113.9 26.228 113.9 25.904V25.76C113 25.508 112.136 25.328 111.236 25.076ZM111.092 17.696C111.128 17.696 111.128 17.696 111.128 17.696H111.092ZM131.776 12.98C131.632 12.728 131.344 12.692 131.236 12.224C131.2 12.116 131.2 11.972 131.2 11.756L131.236 10.928C131.236 10.676 131.2 10.532 131.164 10.352C131.128 10.208 131.056 10.136 131.02 10.136C130.912 10.136 130.876 10.46 130.696 10.712C130.588 10.856 130.408 10.928 130.192 10.928C129.4 10.892 129.148 10.82 128.752 10.712L128.644 10.676C128.464 10.64 128.284 10.604 128.176 10.604C127.996 10.604 127.924 10.676 127.672 10.784C127.672 12.512 127.528 14.168 127.492 15.86C127.276 20.864 127.132 20.108 127.06 23.168C126.628 22.16 125.872 20.684 125.44 19.856C124.72 18.416 124.18 16.616 123.568 15.212L122.488 12.548C122.488 13.088 122.596 13.844 122.992 14.672C122.74 14.564 122.56 14.672 122.416 14.528V14.24C122.416 12.944 122.2 11.828 122.2 10.64C121.696 11.216 122.02 12.26 121.984 13.304C121.732 13.16 121.516 13.124 121.408 12.656L121.336 10.892C121.264 10.712 121.228 10.64 121.192 10.64C121.084 10.64 121.048 11 120.796 11.18C120.688 11.324 120.508 11.396 120.328 11.396L119.86 11.36C119.32 11.36 118.744 11.108 118.132 11.108C117.952 11.108 117.736 11.144 117.52 11.216L117.16 30.728C117.304 30.728 117.268 30.656 117.376 30.656L117.772 30.692C117.844 30.692 117.916 30.692 117.952 30.656C118.276 30.404 118.564 30.116 118.888 30.116L119.032 30.152C119.284 30.188 119.392 30.512 119.644 30.656C119.68 30.692 119.788 30.692 119.896 30.692C120.076 30.692 120.22 30.692 120.328 30.656C120.436 30.62 120.76 30.224 121.3 30.224C121.552 30.224 121.552 30.692 121.804 30.692C121.804 30.224 121.876 28.568 121.984 24.896C121.984 24.464 122.02 22.016 122.056 21.584L123.964 25.292C124.396 26.12 125.764 28.676 125.98 29.396L126.808 29.324C127.132 29.144 127.384 28.784 127.78 28.784H127.924C128.176 28.892 128.248 29.18 128.5 29.324C128.572 29.36 128.68 29.36 128.824 29.36C129.328 29.36 129.256 29.252 130.12 29C130.228 28.964 130.336 28.928 130.48 28.928C130.768 28.928 130.588 29.396 130.912 29.396C131.236 24.356 131.92 17.192 132.172 13.916C132.244 12.8 132.1 11.936 131.992 11.936C131.92 11.936 131.848 12.296 131.776 12.98ZM161.011 2.54C160.723 3.116 160.507 3.584 160.219 4.196C160.111 3.908 159.931 3.764 160.039 3.224L160.471 2.216C160.651 1.82 160.831 1.532 160.867 1.244C160.975 0.595999 160.687 1.172 160.291 1.388C159.895 1.64 159.715 1.316 159.391 1.172C159.103 0.991998 158.779 0.704 158.491 0.451998C158.167 0.163998 157.807 0.0199976 157.447 0.0559993L157.375 0.0919988C156.403 2 155.575 3.944 154.855 5.96C154.027 7.976 153.415 9.992 152.875 12.044C152.335 14.06 151.903 16.148 151.507 18.164L150.715 15.248C150.463 14.42 150.319 13.664 150.067 12.908C149.887 12.08 149.743 11.324 149.635 10.604L149.347 9.128C149.311 8.66 149.419 8.048 149.239 7.688C149.203 8.084 149.131 8.408 149.131 8.732C149.095 9.092 149.095 9.488 149.131 9.92C149.023 9.812 148.879 9.812 148.771 9.704L149.239 6.788C148.987 6.896 148.699 6.608 148.411 6.752C148.015 7.004 147.691 7.256 147.295 7.148C147.115 7.04 146.971 6.68 146.827 6.536C146.647 6.392 146.395 6.464 146.107 6.464C146.071 6.464 145.603 6.572 145.207 6.68C144.811 6.716 144.883 6.32 144.523 6.14C144.343 7.4 144.235 8.48 143.983 9.74C143.695 11.468 143.227 13.196 142.759 14.96C142.471 15.932 142.219 16.796 141.967 17.768C141.787 17.048 141.607 16.328 141.463 15.608C140.923 13.772 140.455 12.044 140.167 10.208C140.059 9.596 139.951 9.056 139.807 8.516C139.699 7.976 139.663 7.22 139.555 6.824L139.483 7.328C139.411 7.724 139.591 8.912 139.627 9.452C139.375 9.308 139.159 9.272 138.979 8.84C138.871 8.588 138.907 8.3 138.799 7.976C138.799 7.616 138.763 7.328 138.691 7.112C138.439 6.572 138.403 7.148 138.259 7.436C138.007 7.832 137.683 7.652 137.395 7.688C136.999 7.796 136.603 7.652 136.207 7.616C135.775 7.58 135.415 7.652 135.091 7.832V7.868C135.523 11.504 136.207 15.068 137.179 18.488L138.907 24.608C139.519 27.02 139.987 29.324 140.383 31.664C140.635 31.484 140.851 31.664 141.103 31.484C141.499 31.232 141.715 30.8 142.147 30.836C142.327 30.872 142.543 31.16 142.687 31.268C142.975 31.376 143.155 31.304 143.407 31.196C143.515 31.16 143.875 30.836 144.199 30.728C144.595 30.548 144.559 31.016 145.027 31.016L144.847 29.576C144.847 28.028 145.063 26.48 145.351 24.86C145.639 23.168 146.359 17.732 146.539 17.156C147.079 18.74 147.763 21.908 148.339 23.492L149.455 26.588C149.779 27.596 150.139 28.64 150.427 29.648C150.679 29.468 151.003 29.576 151.183 29.324C151.471 29.036 151.687 28.64 152.083 28.604C152.335 28.604 152.479 28.82 152.731 28.856H152.839C153.091 29 153.235 28.928 153.487 28.892C153.595 28.856 153.991 28.604 154.387 28.496C154.783 28.388 154.639 28.928 155.107 29.072C155.143 27.524 155.251 26.12 155.359 24.572C155.503 22.376 155.899 20.288 156.331 18.128C156.799 15.824 157.375 13.664 158.059 11.468C158.743 9.344 159.355 7.292 160.183 5.276C160.471 4.592 160.687 3.944 160.939 3.332L161.767 1.424C161.551 1.604 161.263 2 161.011 2.54ZM171.107 25.076C168.803 24.752 166.247 24.464 165.419 24.464L165.455 23.312L165.491 22.664C166.103 22.628 166.751 22.592 167.327 22.484L171.215 22.16L171.179 21.44C171.071 21.152 170.927 20.864 170.927 20.54C170.927 20.216 171.071 20.144 171.107 19.892V19.712C171.107 19.568 171.107 19.388 171.071 19.244C171.071 19.136 170.855 18.416 170.855 17.984C170.855 17.804 170.891 17.696 170.963 17.696C170.531 17.732 170.063 17.768 169.523 17.876L166.283 18.02L165.779 18.056L165.923 15.896C166.247 15.896 166.571 15.932 166.895 15.968C168.299 15.968 170.207 16.22 171.107 16.328L172.583 16.4C172.511 16.076 171.935 16.148 171.503 16.04C171.611 15.86 171.611 15.608 171.863 15.572L172.403 15.608C172.511 15.608 172.583 15.608 172.619 15.572C172.691 15.536 172.727 15.5 172.727 15.464C172.727 15.356 172.583 15.284 172.547 15.176C172.511 15.104 172.511 14.996 172.511 14.888C172.511 14.708 172.547 14.528 172.583 14.276C172.691 13.952 172.727 13.628 172.835 13.232C172.907 12.944 172.943 12.656 172.943 12.368V12.188C172.115 12.008 171.359 11.9 170.531 11.756C169.523 11.612 168.227 11.504 167.039 11.504H164.987C164.987 11.18 164.987 10.82 164.879 10.568C164.843 10.424 164.771 10.352 164.735 10.352C164.627 10.352 164.627 10.712 164.483 10.892C164.375 11.036 164.267 11.108 164.123 11.108L163.727 11.072H163.583C163.295 11.072 163.043 11 162.719 10.964L162.395 10.928C162.143 10.928 161.927 10.964 161.747 11.072C161.783 12.044 161.819 12.908 161.819 13.88V15.86C161.819 17.408 161.747 16.616 161.675 18.2L161.351 25.58C161.351 26.876 161.387 28.172 161.423 29.468C161.459 29.432 161.531 29.432 161.603 29.432L161.891 29.468C161.927 29.468 161.999 29.432 162.107 29.396C162.395 29.144 162.611 28.856 162.935 28.856L163.547 29.36C163.655 29.396 163.727 29.432 163.763 29.432C163.871 29.432 164.015 29.36 164.123 29.324C164.231 29.324 164.519 29.108 164.915 29L165.203 28.928L165.563 28.856H165.887C166.427 28.856 168.515 29.18 171.359 29.684C171.971 29.864 172.511 29.864 173.087 30.008C173.123 29.684 172.367 29.612 171.827 29.432C172.007 29.288 172.079 29.108 172.331 29C172.583 29 172.799 29.18 173.051 29.18C173.123 29.18 173.159 29.18 173.195 29.144C173.303 29.108 173.339 29.072 173.339 29.036C173.339 28.928 173.231 28.856 173.123 28.712L173.087 28.532C173.087 28.28 173.195 28.064 173.231 27.884C173.339 27.488 173.483 27.2 173.627 26.804C173.735 26.516 173.771 26.228 173.771 25.904V25.76C172.871 25.508 172.007 25.328 171.107 25.076ZM170.963 17.696C170.999 17.696 170.999 17.696 170.999 17.696H170.963ZM192.187 22.448C192.079 21.98 191.683 21.512 191.323 20.972C190.999 20.576 190.531 20.144 190.099 19.784C189.271 19.28 188.983 18.668 187.579 18.668C187.687 18.632 187.687 18.596 187.795 18.524C188.155 18.308 188.443 18.128 188.695 17.804C188.839 17.66 189.055 17.552 189.127 17.372L189.703 16.652L189.739 16.436C189.847 16.328 189.847 16.148 189.883 16.04C189.919 15.824 189.955 15.644 189.955 15.464C189.955 15.356 189.955 14.492 189.919 14.456C189.883 14.204 189.595 13.7 189.451 13.412C189.271 13.124 189.091 12.908 188.875 12.692C188.839 12.656 188.767 12.584 188.695 12.584C188.623 12.476 188.551 12.44 188.515 12.44C188.443 12.332 188.299 12.296 188.227 12.188C187.903 12.08 187.795 12.008 187.579 11.828L186.391 11.432C185.995 11.324 185.563 11.288 185.203 11.216C184.447 11.108 183.763 11.036 183.007 11H182.611C181.927 11 181.639 10.928 181.351 10.928L179.047 11C179.515 11.216 181.351 11.072 182.035 11.108C181.819 11.216 181.819 11.36 181.459 11.432H180.991C180.991 11.396 180.991 11.36 180.919 11.36C180.847 11.36 180.847 11.396 180.811 11.432C180.631 11.432 180.415 11.468 180.235 11.504C179.119 11.54 179.047 11.576 179.047 11.612C179.047 11.684 180.307 11.72 180.415 11.792H180.451C180.487 11.828 180.487 11.828 180.487 11.864L179.011 11.972C178.759 11.936 178.795 11.972 178.543 11.864C178.363 11.828 178.183 11.792 178.003 11.792C177.859 11.792 177.787 11.792 177.715 11.828C177.355 14.276 177.139 16.472 177.067 18.812C177.031 19.856 177.031 20.936 177.031 21.944V23.24C177.031 25.004 177.031 26.624 177.067 28.316C177.103 28.28 177.139 28.28 177.175 28.28C177.283 28.28 177.355 28.316 177.463 28.316C177.535 28.316 177.571 28.316 177.643 28.244C177.787 28.172 177.787 28.172 177.895 28.064L177.967 28.1C177.967 28.172 178.039 28.28 178.039 28.352C178.039 28.424 178.327 28.676 178.399 28.892C178.435 28.964 178.471 29.036 178.471 29.072C178.471 29.108 178.435 29.144 178.399 29.216C178.327 29.288 178.183 29.324 178.003 29.324H184.663C185.131 29.252 185.707 29.252 186.247 29.144C186.787 29.072 187.327 29.036 187.975 28.856C188.479 28.748 189.091 28.532 189.667 28.172C189.955 27.992 190.207 27.848 190.531 27.632C190.747 27.452 190.999 27.236 191.215 26.984C191.431 26.732 191.575 26.444 191.755 26.192C191.899 25.94 192.043 25.652 192.115 25.436C192.115 25.544 192.187 25.436 192.187 25.112L192.331 24.608C192.439 23.78 192.403 22.952 192.187 22.448ZM181.783 14.924V14.708H182.431C183.007 14.816 183.547 14.888 184.015 15.032C184.303 15.104 184.519 15.14 184.735 15.212C184.951 15.32 185.815 15.68 185.959 15.824C185.779 16.22 185.311 16.472 184.735 16.688C184.375 16.832 183.043 17.264 182.719 17.408L181.495 17.768C181.531 16.76 181.675 15.896 181.783 14.924ZM187.471 24.68C187.291 24.896 187.039 25.076 186.751 25.184C186.391 25.328 186.031 25.436 185.635 25.472C185.167 25.58 184.591 25.652 184.015 25.688C183.475 25.724 182.863 25.724 182.215 25.724H181.423V23.924C181.387 23.672 181.351 23.42 181.351 23.168C181.351 23.132 181.351 20.216 181.459 18.74C182.287 18.848 182.359 19.676 182.359 19.748C182.359 19.892 182.215 20.036 182.179 20.18C182.179 20.324 182.251 20.432 182.359 20.576C182.359 20.576 182.611 20.792 182.791 21.044C183.007 21.26 182.647 21.188 182.647 21.512C183.079 21.404 183.583 21.296 184.051 21.08C184.051 21.152 184.087 21.26 184.123 21.332C186.859 21.152 186.859 22.016 187.687 23.132C188.119 23.744 188.011 24.248 187.471 24.68Z" fill="white"/>
</svg>
