<svg width="322" height="78" viewBox="0 0 322 78" fill="none" xmlns="http://www.w3.org/2000/svg">
<g clip-path="url(#clip0_177_252)">
<path d="M232.686 64.6641L238.457 52.8574L237.9 51.3926C237.197 49.5176 236.611 48.2871 236.143 47.7012C235.693 47.0957 235.029 46.6758 234.15 46.4414C233.662 46.3242 233.418 46.1191 233.418 45.8262C233.418 45.3965 233.73 45.1816 234.355 45.1816C234.609 45.1816 235.02 45.2109 235.586 45.2695C236.289 45.3477 237.334 45.3867 238.721 45.3867C239.893 45.3867 241.035 45.3379 242.148 45.2402C242.617 45.2012 242.92 45.1816 243.057 45.1816C243.662 45.1816 243.965 45.3672 243.965 45.7383C243.965 46.0898 243.76 46.3145 243.35 46.4121L242.441 46.6172C241.66 46.793 241.27 47.3691 241.27 48.3457C241.27 48.7754 241.484 49.5566 241.914 50.6895L247.129 64.4004L250.205 57.2227L251.377 54.5273C252.354 52.3008 252.842 50.4551 252.842 48.9902C252.842 48.2285 252.598 47.6133 252.109 47.1445C251.621 46.6562 250.996 46.4121 250.234 46.4121C249.648 46.4121 249.355 46.207 249.355 45.7969C249.355 45.3867 249.6 45.1816 250.088 45.1816C250.381 45.1816 250.762 45.2012 251.23 45.2402C251.777 45.2988 252.744 45.3281 254.131 45.3281C255.576 45.3281 256.562 45.3086 257.09 45.2695C257.578 45.2305 257.949 45.2109 258.203 45.2109C258.613 45.2109 258.818 45.377 258.818 45.709C258.818 45.9824 258.604 46.1973 258.174 46.3535C257.471 46.5684 256.934 46.8711 256.562 47.2617C256.211 47.6328 255.83 48.2773 255.42 49.1953L247.129 68.6777C246.797 69.4199 246.328 69.791 245.723 69.791C245.156 69.791 244.756 69.4785 244.521 68.8535L239.307 55.1133L232.598 69.0586C232.363 69.5664 231.953 69.8203 231.367 69.8203C230.859 69.8203 230.527 69.6055 230.371 69.1758L223.428 51.2461L222.9 49.8398C222.275 48.2578 221.279 47.1836 219.912 46.6172C219.443 46.4219 219.209 46.1777 219.209 45.8848C219.209 45.4941 219.531 45.2988 220.176 45.2988C220.352 45.2988 220.693 45.3184 221.201 45.3574C221.807 45.416 222.871 45.4453 224.395 45.4453L227.5 45.3867L228.73 45.3574L229.404 45.5039C229.561 45.582 229.639 45.7285 229.639 45.9434C229.619 46.2168 229.434 46.4023 229.082 46.5L228.291 46.7051C227.393 46.9395 226.943 47.5254 226.943 48.4629C226.943 48.8926 227.227 49.8789 227.793 51.4219L232.686 64.6641ZM263.242 54.4395L263.213 55.084C263.213 58.4238 264.131 61.2363 265.967 63.5215C267.822 65.7871 270.098 66.9199 272.793 66.9199C274.922 66.9199 277.236 65.9629 279.736 64.0488C279.893 63.9316 280.039 63.8633 280.176 63.8438C280.449 63.8242 280.586 63.9805 280.586 64.3125C280.586 64.8984 279.902 65.7285 278.535 66.8027C275.996 68.7949 273.311 69.791 270.479 69.791C267.295 69.791 264.619 68.5801 262.451 66.1582C260.303 63.7363 259.229 60.7383 259.229 57.1641C259.229 53.7656 260.342 50.7969 262.568 48.2578C264.795 45.6992 267.402 44.4199 270.391 44.4199C273.652 44.4199 276.26 45.7773 278.213 48.4922C278.682 49.1562 279.16 50.0547 279.648 51.1875C280.137 52.3203 280.381 53.1113 280.381 53.5605C280.381 54.2051 279.746 54.5273 278.477 54.5273L276.309 54.498L274.316 54.4395H263.242ZM263.359 52.8574H273.291C274.834 52.8574 275.605 52.5449 275.605 51.9199C275.605 50.3965 274.941 48.9805 273.613 47.6719C272.305 46.3633 270.879 45.709 269.336 45.709C267.734 45.709 266.396 46.3535 265.322 47.6426C264.268 48.9121 263.613 50.6504 263.359 52.8574ZM291.045 48.1699C292.842 46.7441 294.375 45.7676 295.645 45.2402C296.934 44.6934 298.34 44.4199 299.863 44.4199C302.891 44.4199 305.361 45.5137 307.275 47.7012C309.209 49.8691 310.176 52.6621 310.176 56.0801C310.176 59.9277 309.014 63.1797 306.689 65.8359C304.385 68.4922 301.553 69.8203 298.193 69.8203C295.361 69.8203 292.715 68.8633 290.254 66.9492C289.941 66.6953 289.707 66.5781 289.551 66.5977C289.277 66.6172 288.877 67.1543 288.35 68.209C287.803 69.2637 287.393 69.791 287.119 69.791C286.768 69.791 286.592 69.5371 286.592 69.0293C286.592 68.834 286.66 68.4336 286.797 67.8281C286.953 67.1445 287.031 66.0508 287.031 64.5469V35.3379C287.031 33.1113 286.865 31.6758 286.533 31.0312C286.357 30.7187 286.074 30.416 285.684 30.123C285.312 29.8301 285.02 29.6934 284.805 29.7129L282.959 29.8594L282.725 29.8008C282.549 29.7227 282.461 29.5859 282.461 29.3906C282.48 29.0391 282.803 28.7949 283.428 28.6582C285.752 28.1309 287.92 27.2715 289.932 26.0801C290.186 25.9434 290.391 25.875 290.547 25.875C290.879 25.875 291.045 26.168 291.045 26.7539V48.1699ZM291.045 51.627V60.7969L291.016 61.9102L291.426 63.9023C291.992 65.1523 292.998 66.2168 294.443 67.0957C295.908 67.9551 297.412 68.3848 298.955 68.3848C301.455 68.3848 303.447 67.4863 304.932 65.6895C306.416 63.873 307.158 61.4512 307.158 58.4238C307.158 55.3184 306.172 52.5547 304.199 50.1328C302.227 47.7109 299.971 46.5 297.432 46.5C295.4 46.5 293.604 47.2617 292.041 48.7852C291.377 49.4297 291.045 50.377 291.045 51.627Z" fill="white"/>
<path d="M214.009 24.552C214.009 24.552 218.375 25.9651 219.732 30.7314C219.953 30.8314 225.192 28.3316 227.843 22.1988C227.843 21.9321 240.72 7.06667 233.776 7C233.524 7.13331 216.524 18.3727 214.009 24.552Z" fill="#E22163"/>
<path d="M218.686 32.7923L212.403 26.1081L209 29.7389L209.064 30.0215L209.704 29.5178C209.704 29.5178 209.239 30.1321 209.239 30.3226C209.25 30.3226 209.448 30.6605 209.448 30.6605C209.448 30.6605 210.385 29.7635 210.547 29.7512C210.53 29.7758 209.873 30.5806 209.762 31.0905C209.785 31.1151 210.187 31.6496 210.187 31.6496C210.187 31.6496 211.455 29.5301 212.205 29.3089C212.205 29.3335 210.926 30.814 211.181 32.866C211.193 32.8905 213.799 35.4877 213.799 35.4877C213.799 35.4877 214.909 36.0003 214.317 37.2601C214.333 37.3035 213.503 39.8492 214.951 39.8839C215.016 39.9187 216.678 40.0577 215.798 37.3383C215.789 37.2948 215.387 36.4086 215.807 35.9047C215.848 35.8613 218.686 32.7923 218.686 32.7923H218.686Z" fill="#E22163"/>
<path d="M35.5097 58.01C35.5097 57.295 35.1797 54.82 33.6397 52.84C33.2547 52.29 32.6497 51.85 31.9897 51.465C31.1097 50.97 30.0097 50.53 28.6897 49.98C29.8447 49.705 31.8797 48.165 32.6497 46.405C32.9247 45.8 33.1997 44.755 33.3097 44.04C33.4197 43.435 33.5297 42.775 33.5297 42.115C33.5297 41.73 33.4197 41.015 33.3647 40.685C33.1997 39.915 32.9247 39.2 32.4847 38.54C32.2097 38.155 31.9347 37.77 31.5497 37.44C31.2197 37.11 30.8347 36.725 30.4497 36.45C30.0647 36.175 29.6797 36.01 29.2947 35.79C28.5247 35.35 27.6997 34.91 26.8197 34.58C25.9947 34.36 25.1697 34.305 24.4547 34.14C22.9697 33.92 21.5947 33.755 20.1097 33.7H19.2847C18.6247 33.7 18.0197 33.7 17.4147 33.755L14.8297 33.92C15.7647 34.36 17.4697 34.085 18.7897 34.14C18.4047 34.36 18.4047 34.635 17.6897 34.8H16.7547C16.7547 34.69 16.6997 34.635 16.5897 34.635C16.4797 34.635 16.4247 34.69 16.3697 34.8C15.9847 34.8 15.5997 34.855 15.2147 34.91C14.9397 35.02 14.8297 35.075 14.8297 35.13C14.8297 35.295 15.3797 35.35 15.5997 35.515H15.6547C15.7097 35.57 15.7097 35.57 15.7097 35.625L14.7197 35.405C14.2247 35.35 13.6747 35.185 13.1797 35.02C12.7947 34.91 12.4097 34.855 12.0797 34.855C11.8047 34.855 11.6397 34.855 11.5297 34.91C10.8147 39.805 10.3747 44.59 10.2097 49.265C10.1547 51.3 10.1547 53.445 10.1547 55.48V58.01C10.1547 61.53 10.1547 64.775 10.2097 68.075C10.2647 68.02 10.3747 68.02 10.4297 68.02C10.6497 68.02 10.8147 68.13 10.9797 68.13C11.1447 68.13 11.2547 68.075 11.3647 67.965C11.6397 67.855 11.6397 67.8 11.8597 67.635L12.0247 67.69C12.0247 67.855 12.1347 68.02 12.1897 68.185C12.1897 68.35 12.7397 68.79 12.9047 69.23C12.9597 69.395 13.0147 69.505 13.0147 69.615C13.0147 69.67 12.9597 69.725 12.9047 69.89C12.7397 70.055 12.4647 70.11 12.0797 70.11H22.9697C25.7747 69.945 28.2497 69.065 30.2847 67.745C30.8897 67.36 31.3847 66.755 31.8797 66.315C32.4847 65.765 33.0347 65.325 33.4747 64.72C33.9147 64.115 34.1347 63.51 34.4647 62.85C35.1797 61.365 35.5097 59.715 35.5097 58.01ZM17.6897 39.31H19.1747C21.7597 39.365 23.6297 39.805 24.8397 40.685C25.4447 41.07 26.2697 41.565 26.2697 42.225C26.2697 42.83 26.9297 43.985 25.9947 45.69C25.7747 46.185 25.3897 46.57 24.9497 46.9C23.5197 47.89 21.0447 48.22 17.3597 47.945C17.4147 45.91 17.4697 41.62 17.6347 39.695C17.6897 39.64 17.6897 39.475 17.6897 39.31ZM28.5797 58.12C28.5797 59.055 28.3047 59.935 27.6997 60.815C27.5347 61.09 26.7647 61.86 26.5447 62.135C25.0047 63.84 23.0247 64.5 19.6147 64.5H16.9747L16.9197 61.53V60.925C16.8647 60.43 16.8097 59.935 16.8097 59.44C16.8097 58.065 16.9747 56.635 16.9197 55.26C16.8647 53.115 17.0847 52.18 17.3047 49.54C17.5247 49.76 17.6347 49.98 17.6897 50.145C17.6897 50.42 17.3597 50.695 17.3047 50.97C17.3047 51.245 17.4147 51.52 17.6347 51.74C17.6347 51.795 18.1297 52.18 18.5147 52.675C18.9547 53.115 18.2397 53.005 18.2397 53.665C19.1197 53.39 20.1097 53.17 20.9897 52.785C20.9897 52.95 21.0997 53.115 21.1547 53.28C22.7497 53.28 23.8497 53.555 25.0047 53.775C25.9397 53.94 26.8747 54.71 27.4247 55.095C28.4147 55.92 28.5797 56.745 28.5797 58.12ZM60.6963 65.215C60.0363 63.73 59.5963 62.3 58.9913 60.925C58.8263 60.595 58.7163 60.21 58.5513 59.825C58.8813 59.715 59.2113 59.55 59.5413 59.385C61.9613 58.175 64.4363 54.435 64.7113 51.19C63.8863 48.44 63.1163 46.68 61.3563 45.14C57.5613 41.675 53.9863 41.345 48.2113 41.345C46.6713 41.345 44.9113 41.4 44.9113 41.455C45.1313 42.115 49.0363 41.95 49.0363 42.225C49.0363 42.5 48.3763 42.5 47.9363 42.5H47.5513C47.2763 42.5 46.8913 42.5 46.6162 42.445C45.9563 42.445 45.1863 42.39 44.8013 42.555C44.4713 42.61 44.3063 42.665 44.3063 42.72C44.3063 42.885 45.0213 42.94 45.4062 43.16C45.6813 43.325 45.7912 43.49 45.7912 43.655V44.095C45.7912 44.15 45.6263 44.205 45.2413 44.205H44.9663C44.2513 44.205 43.4813 43.93 42.6563 43.93C42.3813 43.93 42.1063 43.985 41.8313 44.095V69.615C41.8313 69.56 41.8863 69.56 41.9963 69.56L42.4913 69.615L42.8763 69.505C43.2613 69.23 43.5913 68.79 44.0313 68.79L44.3063 68.845C44.5263 68.9 44.8563 69.34 45.0763 69.505C45.2413 69.56 45.3513 69.615 45.4613 69.615C45.6263 69.615 45.7912 69.56 46.0663 69.505C46.3413 69.34 47.1113 68.955 47.7163 68.955C48.1013 68.955 47.9913 69.395 48.3213 69.56C48.3213 68.735 48.2663 67.91 48.1013 67.03V61.915C49.7513 61.915 51.1263 61.86 52.2263 61.75C52.5013 62.63 52.8313 63.455 53.2163 64.28C53.9313 65.985 54.6463 67.47 55.5263 69.175C56.5713 71.1 57.5063 72.75 58.5513 74.51C58.8263 74.29 59.1013 74.29 59.4863 74.015C59.8713 73.63 60.0363 73.245 60.6413 73.08L60.8063 73.025C60.9713 73.025 61.2463 73.135 61.4663 73.135C61.8513 73.08 62.0713 72.86 62.2913 72.695C62.5663 72.42 63.4463 71.595 64.0513 71.595C64.2163 71.595 64.3263 71.65 64.4363 71.815L62.7313 69.175C61.9063 67.91 61.3013 66.48 60.6963 65.215ZM48.2663 55.92L48.3763 48.11L48.2663 47.065C48.9813 47.12 49.7513 47.065 50.5763 47.23C55.0863 47.56 54.2613 47.56 56.6813 48.66C58.9363 49.925 58.3863 55.425 52.3913 55.645C51.2913 55.7 50.1363 55.92 48.9813 55.92H48.2663ZM70.8085 41.73V41.785C70.8635 46.625 70.2035 55.48 70.0385 58.89C69.8735 62.41 69.7085 65.93 69.6535 69.615C70.0935 69.395 70.5335 69.725 70.9185 69.45C71.5235 69.065 72.0185 68.625 72.6235 68.79C73.0085 68.845 73.2285 69.395 73.5035 69.615C73.8885 69.78 74.2735 69.67 74.6585 69.615C74.8235 69.615 76.4735 68.515 77.2435 69.835C77.2985 67.91 77.2435 66.205 77.2435 64.28C77.2435 61.585 77.4085 58.945 77.6835 56.305C77.6835 53.94 78.2335 49.32 78.2335 46.13C78.2335 44.315 78.0135 42.665 78.0135 40.96C77.4085 41.84 77.7385 43.215 77.6835 44.92C77.2985 44.535 76.9685 44.48 76.7485 43.82C76.5835 43.105 76.8585 41.895 76.6385 41.18C76.3635 40.465 74.8785 41.895 74.4385 41.895C73.2835 41.895 71.9635 41.235 70.8085 41.73ZM107.019 67.855V65.38L107.734 64.885C107.514 64.885 107.459 64.72 107.349 64.5C107.349 64.39 107.294 64.335 107.074 64.17C107.019 64.17 107.019 64.005 107.019 63.895C107.074 62.52 107.129 61.97 107.129 60.76V57.075L106.964 54.82C106.799 55.48 106.689 55.865 106.689 56.58C106.414 56.36 106.139 56.36 105.974 56.085C105.974 56.03 105.919 55.975 105.919 55.865L105.974 55.315C105.974 55.205 105.919 55.095 105.864 54.985C105.809 54.875 105.754 54.82 105.699 54.82C105.589 54.82 105.589 55.04 105.424 55.15L105.149 55.205V54.655L105.094 52.62C105.094 52.345 105.094 52.07 105.204 51.52C104.874 52.07 104.489 52.18 103.994 52.235C103.829 52.29 103.609 52.29 103.389 52.29L101.299 52.235L99.0437 52.29H96.8987C96.5687 52.345 96.2387 52.565 95.8537 52.565C96.1837 52.675 96.4037 52.73 96.6787 52.73C96.5687 52.95 96.6237 53.225 96.5137 53.39H96.1837C96.0737 53.39 96.0187 53.445 95.9637 53.5L95.8537 53.61C95.8537 53.775 96.0187 53.775 96.0737 53.885C96.1287 54.05 96.1287 54.16 96.1287 54.38V57.845C96.0737 57.955 96.0737 58.12 96.0737 58.285C96.0737 58.45 96.0737 58.56 96.1287 58.67H100.309V61.53L100.034 61.585C99.0987 62.135 98.1637 62.245 97.1187 62.52C96.2387 62.85 95.6337 62.905 95.0837 62.96H94.4787C93.9837 62.96 93.4887 62.905 92.9937 62.795C92.5537 62.685 92.0037 62.355 91.6737 62.08C90.3537 60.65 89.9687 59.22 89.9687 56.415C89.9687 55.425 89.9687 54.655 90.1337 53.83C90.2987 53.005 90.4087 52.125 90.6837 51.355C90.8487 50.585 91.1237 49.98 91.3987 49.43C91.8937 48 94.2037 47.065 95.9087 47.56C96.5687 47.835 97.1187 48 97.8337 48.275C99.1537 48.77 100.419 49.43 101.629 50.53C102.069 49.54 100.089 49.045 99.2637 48.44L97.7237 47.78C97.2287 47.78 96.5137 47.175 96.0187 47.01C96.2387 46.955 96.3487 46.845 96.7337 46.79C96.7887 46.79 96.8437 46.735 97.0087 46.735C97.2287 46.735 97.5037 46.79 97.8337 46.9C98.4387 47.065 99.1537 47.395 99.8687 47.835C100.584 48.22 101.299 48.66 101.904 48.825C102.179 48.935 102.344 48.99 102.454 48.99C102.454 48.88 102.454 48.825 102.399 48.77L101.519 47.945C101.354 47.78 101.299 47.56 101.299 47.34C101.299 47.175 101.299 47.065 101.354 47.01L101.849 46.57C102.069 46.13 102.619 45.745 103.059 45.36C103.444 45.085 103.774 44.7 103.774 44.205L103.609 43.765C102.509 43.105 101.354 42.555 100.309 42.06C98.4937 41.345 97.1187 41.18 95.0287 41.18C94.4237 41.18 92.9387 41.235 92.2787 41.345C91.6187 41.455 91.0137 41.675 90.4637 41.895C89.8037 42.225 88.9787 42.5 88.4287 42.995C87.8787 43.325 87.4387 43.82 87.0537 44.315C86.6137 44.81 85.8987 45.25 85.6787 45.8C85.2937 46.295 85.0737 46.79 84.9087 47.285C84.4137 48.385 84.0837 49.43 83.9187 50.42C83.5887 51.465 83.4787 52.4 83.4237 53.39V55.7C83.2587 56.14 83.2037 56.58 83.2037 57.075C83.3687 58.395 83.4237 59.66 83.6987 60.98C83.8637 61.64 84.0287 62.3 84.2487 63.015L85.2387 64.995C85.7887 65.6 86.1187 66.205 87.3837 67.085C87.9887 67.47 88.5937 67.855 89.3087 68.24C90.1887 68.735 91.0137 68.9 91.8387 69.23C92.7187 69.395 93.5437 69.505 94.4237 69.505C95.3037 69.505 96.0737 69.395 96.7887 69.285C97.5587 69.12 98.3837 68.9 99.0987 68.735C99.5937 68.515 100.199 68.35 100.749 68.185V69.89L101.684 69.835C102.894 69.67 103.169 69.56 103.554 69.56H103.829C103.994 69.56 104.104 69.67 104.434 69.835H105.094C105.314 69.78 106.029 69.615 106.579 69.615C106.854 69.615 106.799 69.89 107.074 69.89C107.074 69.175 107.074 68.46 107.019 67.855ZM133.974 46.46C133.754 46.075 133.424 46.075 133.259 45.415V42.555C133.149 42.28 133.094 42.17 133.039 42.17C132.874 42.17 132.764 42.72 132.544 42.995C132.379 43.215 132.214 43.325 131.994 43.325L131.279 43.215C130.564 43.215 129.684 42.83 128.859 42.83C128.584 42.83 128.309 42.885 128.034 42.995C127.869 47.67 127.484 48.055 127.044 52.675L121.324 52.62L118.739 52.565V50.53C118.739 49.43 118.739 48.11 118.794 46.735C118.849 46.24 118.849 45.8 118.849 45.305V41.4C118.299 42.115 118.464 43.82 118.299 45.415C118.079 45.14 117.694 45.03 117.529 44.315V42.335L117.584 41.95L117.529 41.675C117.474 41.4 117.419 41.29 117.364 41.29C117.199 41.29 117.089 41.84 116.924 42.115C116.759 42.28 116.594 42.39 116.374 42.39L113.239 41.895C112.964 41.895 112.689 41.95 112.414 42.06C112.249 45.8 112.139 56.195 112.139 63.125C112.139 65.875 112.139 68.075 112.194 69.12C112.359 69.065 112.469 69.01 112.524 69.01L113.019 69.065C113.129 69.065 113.184 69.065 113.239 69.01C113.679 68.625 114.229 68.185 114.669 68.185C115.109 68.35 115.274 68.79 115.549 68.955C115.714 69.01 115.824 69.065 115.934 69.065C116.154 69.065 116.319 69.01 116.539 68.955C116.704 68.9 117.584 68.35 118.244 68.35C118.629 68.35 118.574 68.955 118.904 69.01L118.574 58.285H126.384L126.164 62.19C125.944 65.985 125.724 67.195 125.724 71.1C125.779 71.045 125.944 70.99 126.109 70.99L126.604 71.045C126.659 71.045 126.714 71.045 126.769 70.99C127.264 70.605 127.704 70.11 128.199 70.11L128.364 70.165C128.639 70.33 128.749 70.77 129.134 70.99C129.299 71.045 129.409 71.1 129.464 71.1C129.574 71.1 129.794 71.045 130.069 70.99C130.234 70.99 130.729 70.605 131.334 70.385C131.499 70.385 131.554 70.33 131.719 70.33C132.214 70.33 132.104 70.935 132.434 71.155V68.405C132.434 65.545 134.249 50.86 134.469 47.835C134.469 47.67 134.524 47.12 134.524 46.515C134.524 45.36 134.469 44.755 134.304 44.755C134.139 44.755 134.029 45.305 133.974 46.46ZM153.298 48.275C160.008 47.615 160.008 47.45 160.008 47.285V46.9C160.008 46.735 160.008 46.625 159.953 46.57C159.733 46.075 159.348 45.69 159.348 45.25V44.975C159.348 44.7 159.843 44.48 159.898 44.205C159.953 44.15 159.953 43.985 159.953 43.765C159.953 43.49 159.953 43.325 159.898 43.215C159.898 43.16 159.623 42.555 159.458 41.95C159.403 41.84 159.348 41.675 159.348 41.455C159.348 41.07 159.788 41.235 159.953 40.85C158.248 40.905 153.683 40.85 151.428 41.07C149.173 41.125 147.138 41.125 144.993 41.125L140.593 41.235C140.098 41.235 139.603 40.96 139.108 41.18L139.273 41.235C140.153 41.455 140.868 41.51 141.968 41.675C141.693 41.95 141.638 42.28 141.143 42.445C141.033 42.5 140.868 42.5 140.703 42.5C140.428 42.5 140.263 42.5 140.153 42.445L139.658 42.39C139.493 42.39 139.383 42.445 139.218 42.445C139.053 42.5 138.943 42.61 138.943 42.665C138.943 42.83 139.273 42.94 139.493 43.105C139.603 43.27 139.658 43.49 139.658 43.655C139.658 43.82 139.603 44.04 139.548 44.425C139.493 45.03 139.328 45.47 139.163 46.075V46.295L139.108 46.57C139.053 46.845 138.998 47.065 138.998 47.23L139.108 47.67L139.603 47.725C143.343 48 145.213 48.165 144.443 48.165H146.478C146.533 57.735 146.643 66.645 146.808 69.89C146.863 69.835 147.028 69.835 147.193 69.835H147.523C147.688 69.835 147.853 69.78 147.963 69.725C148.403 69.45 148.843 69.01 149.338 69.01C149.778 69.065 150.053 69.505 150.273 69.67C150.328 69.725 150.493 69.725 150.658 69.725C150.933 69.725 151.098 69.67 151.318 69.615C151.483 69.56 151.923 68.955 152.528 68.955C152.968 68.955 153.078 69.505 153.628 69.615C153.573 67.91 153.518 66.425 153.353 64.885V64.61C153.188 63.345 153.133 62.19 153.133 60.925V55.535C153.298 55.095 153.243 54.765 153.243 54.38V50.09C153.243 49.485 153.243 48.88 153.298 48.275ZM179.305 62.905C175.785 62.41 171.88 61.97 170.615 61.97L170.67 60.21L170.725 59.22C171.66 59.165 172.65 59.11 173.53 58.945L179.47 58.45L179.415 57.35C179.25 56.91 179.03 56.47 179.03 55.975C179.03 55.48 179.25 55.37 179.305 54.985V54.71C179.305 54.49 179.305 54.215 179.25 53.995C179.25 53.83 178.92 52.73 178.92 52.07C178.92 51.795 178.975 51.63 179.085 51.63C178.425 51.685 177.71 51.74 176.885 51.905L171.935 52.125L171.165 52.18L171.385 48.88C171.88 48.88 172.375 48.935 172.87 48.99C175.015 48.99 177.93 49.375 179.305 49.54L181.56 49.65C181.45 49.155 180.57 49.265 179.91 49.1C180.075 48.825 180.075 48.44 180.46 48.385L181.285 48.44C181.45 48.44 181.56 48.44 181.615 48.385C181.725 48.33 181.78 48.275 181.78 48.22C181.78 48.055 181.56 47.945 181.505 47.78C181.45 47.67 181.45 47.505 181.45 47.34C181.45 47.065 181.505 46.79 181.56 46.405C181.725 45.91 181.78 45.415 181.945 44.81C182.055 44.37 182.11 43.93 182.11 43.49V43.215C180.845 42.94 179.69 42.775 178.425 42.555C176.885 42.335 174.905 42.17 173.09 42.17H169.955C169.955 41.675 169.955 41.125 169.79 40.74C169.735 40.52 169.625 40.41 169.57 40.41C169.405 40.41 169.405 40.96 169.185 41.235C169.02 41.455 168.855 41.565 168.635 41.565L168.03 41.51H167.81C167.37 41.51 166.985 41.4 166.49 41.345L165.995 41.29C165.61 41.29 165.28 41.345 165.005 41.51C165.06 42.995 165.115 44.315 165.115 45.8V48.825C165.115 51.19 165.005 49.98 164.895 52.4L164.4 63.675C164.4 65.655 164.455 67.635 164.51 69.615C164.565 69.56 164.675 69.56 164.785 69.56L165.225 69.615C165.28 69.615 165.39 69.56 165.555 69.505C165.995 69.12 166.325 68.68 166.82 68.68L167.755 69.45C167.92 69.505 168.03 69.56 168.085 69.56C168.25 69.56 168.47 69.45 168.635 69.395C168.8 69.395 169.24 69.065 169.845 68.9L170.285 68.79L170.835 68.68H171.33C172.155 68.68 175.345 69.175 179.69 69.945C180.625 70.22 181.45 70.22 182.33 70.44C182.385 69.945 181.23 69.835 180.405 69.56C180.68 69.34 180.79 69.065 181.175 68.9C181.56 68.9 181.89 69.175 182.275 69.175C182.385 69.175 182.44 69.175 182.495 69.12C182.66 69.065 182.715 69.01 182.715 68.955C182.715 68.79 182.55 68.68 182.385 68.46L182.33 68.185C182.33 67.8 182.495 67.47 182.55 67.195C182.715 66.59 182.935 66.15 183.155 65.545C183.32 65.105 183.375 64.665 183.375 64.17V63.95C182 63.565 180.68 63.29 179.305 62.905ZM179.085 51.63C179.14 51.63 179.14 51.63 179.14 51.63H179.085ZM210.685 44.425C210.465 44.04 210.025 43.985 209.86 43.27C209.805 43.105 209.805 42.885 209.805 42.555L209.86 41.29C209.86 40.905 209.805 40.685 209.75 40.41C209.695 40.19 209.585 40.08 209.53 40.08C209.365 40.08 209.31 40.575 209.035 40.96C208.87 41.18 208.595 41.29 208.265 41.29C207.055 41.235 206.67 41.125 206.065 40.96L205.9 40.905C205.625 40.85 205.35 40.795 205.185 40.795C204.91 40.795 204.8 40.905 204.415 41.07C204.415 43.71 204.195 46.24 204.14 48.825C203.81 56.47 203.59 55.315 203.48 59.99C202.82 58.45 201.665 56.195 201.005 54.93C199.905 52.73 199.08 49.98 198.145 47.835L196.495 43.765C196.495 44.59 196.66 45.745 197.265 47.01C196.88 46.845 196.605 47.01 196.385 46.79V46.35C196.385 44.37 196.055 42.665 196.055 40.85C195.285 41.73 195.78 43.325 195.725 44.92C195.34 44.7 195.01 44.645 194.845 43.93L194.735 41.235C194.625 40.96 194.57 40.85 194.515 40.85C194.35 40.85 194.295 41.4 193.91 41.675C193.745 41.895 193.47 42.005 193.195 42.005L192.48 41.95C191.655 41.95 190.775 41.565 189.84 41.565C189.565 41.565 189.235 41.62 188.905 41.73L188.355 71.54C188.575 71.54 188.52 71.43 188.685 71.43L189.29 71.485C189.4 71.485 189.51 71.485 189.565 71.43C190.06 71.045 190.5 70.605 190.995 70.605L191.215 70.66C191.6 70.715 191.765 71.21 192.15 71.43C192.205 71.485 192.37 71.485 192.535 71.485C192.81 71.485 193.03 71.485 193.195 71.43C193.36 71.375 193.855 70.77 194.68 70.77C195.065 70.77 195.065 71.485 195.45 71.485C195.45 70.77 195.56 68.24 195.725 62.63C195.725 61.97 195.78 58.23 195.835 57.57L198.75 63.235C199.41 64.5 201.5 68.405 201.83 69.505L203.095 69.395C203.59 69.12 203.975 68.57 204.58 68.57H204.8C205.185 68.735 205.295 69.175 205.68 69.395C205.79 69.45 205.955 69.45 206.175 69.45C206.945 69.45 206.835 69.285 208.155 68.9C208.32 68.845 208.485 68.79 208.705 68.79C209.145 68.79 208.87 69.505 209.365 69.505C209.86 61.805 210.905 50.86 211.29 45.855C211.4 44.15 211.18 42.83 211.015 42.83C210.905 42.83 210.795 43.38 210.685 44.425Z" fill="#E22163"/>
</g>
<defs>
<clipPath id="clip0_177_252">
<rect width="322" height="78" fill="white"/>
</clipPath>
</defs>
</svg>
