<svg width="39" height="30" viewBox="0 0 39 30" fill="none" xmlns="http://www.w3.org/2000/svg">
<path fill-rule="evenodd" clip-rule="evenodd" d="M2.55207 0.0985387C1.37782 0.353351 0.473184 1.32631 0.14802 2.68422C-0.00863198 3.33831 0.017414 4.35129 0.206567 4.96133C0.553649 6.08085 1.79913 7.73455 3.06143 8.75201C3.33863 8.97539 5.35559 10.3944 7.54362 11.9055C9.73164 13.4165 12.1719 15.1096 12.9664 15.6679C15.7345 17.6129 16.5563 18.1499 17.3766 18.5499C19.4118 19.5424 20.3365 19.2796 24.0523 16.6528C24.6741 16.2132 27.3447 14.3621 29.9868 12.5392C35.3808 8.81763 35.3207 8.86138 36.1292 8.07298C38.1566 6.09593 38.9258 3.64561 38.0647 1.90731C37.8024 1.3776 37.1475 0.694619 36.6368 0.418155C35.8086 -0.0301742 36.9053 -0.00411805 19.1811 0.00275062C6.86965 0.00745416 2.86552 0.0305986 2.55207 0.0985387ZM0 17.9259V26.1641L4.80127 21.389C7.44199 18.7626 9.57589 16.5957 9.54324 16.5737C4.27464 13.0092 1.31844 10.9275 0.70242 10.3482L0 9.68756V17.9259ZM37.9808 10.1191C37.2979 10.8174 36.6793 11.2689 32.6707 13.9951L28.8285 16.6082L33.6111 21.3679L38.3936 26.1277L38.413 22.0212C38.4237 19.7626 38.4237 16.0657 38.413 13.8059L38.3936 9.69697L37.9808 10.1191ZM6.61346 23.7674L1.17996 29.1722L1.49859 29.4018C1.67386 29.5281 2.00795 29.7081 2.24094 29.8018L2.66466 29.9722L18.9529 29.9942C30.8617 30.0104 35.3622 29.9936 35.6914 29.9317C36.1537 29.8448 36.9078 29.4935 37.1107 29.2706C37.2152 29.1557 36.7692 28.6922 31.7986 23.7484L26.3723 18.3516L25.027 19.2974C23.2506 20.5464 22.5185 20.9625 21.2798 21.4271C19.9646 21.9204 18.4684 21.9204 17.1514 21.4273C15.8691 20.9472 15.166 20.5466 13.3822 19.2802C12.6714 18.7756 12.0802 18.3627 12.0684 18.3627C12.0566 18.3627 9.60186 20.7949 6.61346 23.7674Z" fill="white" fill-opacity="0.5"/>
</svg>
