<svg width="30" height="30" viewBox="0 0 30 30" fill="none" xmlns="http://www.w3.org/2000/svg">
<path fill-rule="evenodd" clip-rule="evenodd" d="M3.53385 0.959499C3.86192 0.631915 4.25587 0.377796 4.68959 0.21398C5.12331 0.0501647 5.58689 -0.0196059 6.04961 0.00929196C6.51233 0.0381899 6.96362 0.165096 7.37359 0.381602C7.78355 0.598107 8.14283 0.899267 8.4276 1.26512L11.7932 5.58887C12.4101 6.382 12.6276 7.41512 12.3838 8.39012L11.3582 12.4964C11.3052 12.7091 11.3081 12.9318 11.3665 13.1431C11.425 13.3543 11.5371 13.5469 11.692 13.702L16.2988 18.3089C16.4542 18.464 16.647 18.5763 16.8586 18.6348C17.0702 18.6933 17.2934 18.696 17.5063 18.6426L21.6107 17.617C22.0919 17.4967 22.5941 17.4873 23.0794 17.5897C23.5647 17.692 24.0203 17.9033 24.412 18.2076L28.7357 21.5714C30.2901 22.7807 30.4326 25.0776 29.0413 26.467L27.1026 28.4057C25.7151 29.7932 23.6413 30.4026 21.7082 29.722C16.7604 27.9811 12.2681 25.1486 8.56447 21.4345C4.85064 17.7314 2.01811 13.2397 0.276972 8.29262C-0.401778 6.36137 0.207597 4.28575 1.5951 2.89825L3.53385 0.959499Z" fill="white" fill-opacity="0.5"/>
</svg>
