<svg width="60" height="60" viewBox="0 0 60 60" fill="none" xmlns="http://www.w3.org/2000/svg">
<path d="M51.0036 8.72266C48.2529 5.94645 44.9771 3.74546 41.3672 2.24795C37.7574 0.75043 33.8856 -0.013666 29.9774 0.000184989C13.6012 0.000184989 0.254999 13.3426 0.239999 29.7226C0.239999 34.9688 1.6125 40.0726 4.20374 44.5913L0 60L15.765 55.8675C20.1262 58.2409 25.0122 59.485 29.9774 59.4863H29.9924C46.3724 59.4863 59.7148 46.1438 59.7298 29.7488C59.7336 25.8415 58.9641 21.9721 57.4658 18.3634C55.9675 14.7548 53.77 11.4783 50.9998 8.72266H51.0036ZM29.9774 54.4538C25.5487 54.4553 21.2013 53.2635 17.3924 51.0038L16.4924 50.4638L7.13998 52.9163L9.63747 43.7926L9.05247 42.8513C6.57676 38.915 5.26741 34.3577 5.27623 29.7076C5.27623 16.1101 16.365 5.01767 29.9924 5.01767C33.2389 5.01185 36.4545 5.6487 39.4537 6.89151C42.4529 8.13432 45.1765 9.9585 47.4674 12.2589C49.7662 14.5503 51.5887 17.2742 52.8296 20.2735C54.0704 23.2728 54.7052 26.488 54.6973 29.7338C54.6823 43.38 43.5936 54.4538 29.9774 54.4538ZM43.5336 35.9513C42.7949 35.5801 39.1461 33.7838 38.4599 33.5288C37.7774 33.2851 37.2786 33.1576 36.7911 33.9001C36.2924 34.6388 34.8674 36.3226 34.4399 36.8063C34.0124 37.3051 33.5699 37.3613 32.8274 36.9938C32.0886 36.6188 29.6924 35.8388 26.8574 33.3001C24.6449 31.3313 23.1637 28.8938 22.7212 28.1551C22.2937 27.4126 22.6799 27.0151 23.0512 26.6439C23.3774 26.3139 23.7899 25.7739 24.1612 25.3464C24.5362 24.9189 24.6599 24.6039 24.9037 24.1089C25.1474 23.6064 25.0312 23.1789 24.8474 22.8076C24.6599 22.4364 23.1787 18.7726 22.5524 17.2951C21.9524 15.8364 21.3412 16.0389 20.8837 16.0201C20.4562 15.9939 19.9574 15.9939 19.4587 15.9939C19.0821 16.0032 18.7114 16.0904 18.37 16.2498C18.0287 16.4091 17.7239 16.6374 17.4749 16.9201C16.7924 17.6626 14.8837 19.4589 14.8837 23.1226C14.8837 26.7864 17.5462 30.3076 17.9212 30.8063C18.2887 31.3051 23.1487 38.8013 30.6074 42.0263C32.3699 42.7951 33.7574 43.2488 34.8411 43.5938C36.6224 44.1638 38.2311 44.0775 39.5136 43.8938C40.9386 43.6763 43.9049 42.0938 44.5311 40.3576C45.1461 38.6176 45.1461 37.1326 44.9586 36.8213C44.7749 36.5063 44.2761 36.3226 43.5336 35.9513Z" fill="white" fill-opacity="0.5"/>
</svg>
